<svg xmlns="http://www.w3.org/2000/svg" viewBox="2532.933 1414.46 233.047 153.661">
  <defs>
    <style>
      .cls-1 {
        fill: none;
        stroke: #333;
        stroke-width: 2px;
      }

      .cls-2 {
        fill: #333;
      }
    </style>
  </defs>
  <g id="O_açogue" data-name="O açogue" transform="translate(2532.933 1414.46)">
    <g id="Group_312" data-name="Group 312" transform="translate(0)">
      <g id="Group_311" data-name="Group 311">
        <g id="Group_470" data-name="Group 470">
          <g id="Sala-Açogue--Microcopy" transform="translate(0 0)">
            <path id="line" class="cls-1" d="M1342.013,2115.5h45.41" transform="translate(-1247.9 -1962.839)"/>
            <g id="logo" transform="translate(0 76.868)">
              <path id="Path_287" data-name="Path 287" class="cls-2" d="M25.082,89.578,25,89.33l-1.937-3.967-.081-.331c.081-.083.161-.165.242-.165a3.316,3.316,0,0,1-.4-1.653v-.826c0-.331-.081-.661-.081-.826V80.9a1.215,1.215,0,0,0-.161-.578,2.462,2.462,0,0,1-.161-.744v-.331a.416.416,0,0,1,.323.165l-.081.331.081.165.484.992.484,1.074a1.831,1.831,0,0,0,.323.413,9.694,9.694,0,0,0-.484-1.735l-.161-.413-.323-.5c-.081-.331-.161-.578-.242-.826l.242-.248.161-.165v-.413a3.589,3.589,0,0,0-.161-.909A1.56,1.56,0,0,0,22.9,76.6l-.081-.331-.161-.331c-.081,0-.161-.083-.242-.083a.7.7,0,0,0-.565.331c-.323-.992-.646-2.479-1.211-4.215l-.565-2.066-.565-2.066.161-.083h.161a.292.292,0,0,1,.242-.083c.969-.248,1.7-.413,2.26-.578.323-.083.484-.165.565-.413v-.661c0-.248,0-.413-.081-.5a1.129,1.129,0,0,0-.484-.165h-.161l-.807.165-.807.248-.727.165-.727.165-.081-.165-1.453-4.628a30.169,30.169,0,0,1-1.453-4.958,7.811,7.811,0,0,0-.323-1.074l-.081-.083-.161-.083a76.965,76.965,0,0,0,2.987,11.074.443.443,0,0,1-.4.248h-.4a36.194,36.194,0,0,1-1.7-6.2l-.081-.083-.081-.083a.308.308,0,0,1-.081-.248l-.081-.165-.081-.165a.632.632,0,0,1-.161-.331A.291.291,0,0,1,15.4,59v-.165l-.161-.661-.4-.744c-.161-.5-.323-.909-.4-1.24a2.462,2.462,0,0,1-.161-.744,3.034,3.034,0,0,1,.161-.909,11.1,11.1,0,0,0,.807-2.479c0-.165.081-.331.081-.578V50.9l.081-.165a.291.291,0,0,1-.081-.165.259.259,0,0,1-.081-.165,11.156,11.156,0,0,0,.807-1.983,4.737,4.737,0,0,1,.323-.992l.323-.992a.789.789,0,0,0,.323.083,2.1,2.1,0,0,0-.081-.661l-.081-.661h-.323a16.74,16.74,0,0,1-1.7,4.958l-.161-.083-.161-.083-.242-.165v-.413l-.081.248-.161.165a3.654,3.654,0,0,0,.081-.413l.081-.165.081-.165a2.1,2.1,0,0,0,.081-.661V48.34a18.063,18.063,0,0,1-.969,1.9l-.242.083-.161.083c-.161,0-.242.083-.323.083l-.081.331-.081.248c-.081.165-.081.331-.161.5a.547.547,0,0,1-.323.413l-.081.083-.081.083-.161.165v1.157c0,.083,0,.165-.081.165l-.081.083v.083a1.194,1.194,0,0,0-.161.5l-.484,1.157L10.391,56.6c-.565,1.24-1.13,2.644-1.7,4.132H8.534l-.081.165-.242.248c0-.165-.081-.413-.081-.661l-.081-.331-.081-.331-.161.165-.081.083h0l.081.909c0,.331.081.578.081.826A5.769,5.769,0,0,1,7.4,64.373H7.323v.165l-.807,1.983c0-.248-.081-.5-.081-.744V65.2l.081-.578.081-.661a5.575,5.575,0,0,1,.727-2.479c-.161-.083-.242-.165-.323-.165-.081.083-.242.165-.323.248a.259.259,0,0,1-.081.165l-.081.165a11.6,11.6,0,0,0-.4,2.066c0,.331-.081.661-.081,1.074l-.081.992c-.081.909-.161,1.818-.323,2.727,0-.248-.081-.413-.081-.661v-.248a4.149,4.149,0,0,1,.081-.909c0-.413.081-.826.081-1.157V65.2a.759.759,0,0,0-.242.578l-.081.661c0,.331-.081.744-.081,1.24l-.081,1.24a.969.969,0,0,1-.323.826A11.633,11.633,0,0,0,.3,71.232l.081.165v.083a2.511,2.511,0,0,0,1.13.165h.161a1.962,1.962,0,0,0,.646-.083h.646v.744l.161.165.081.083h0c.242,0,.484.083.646.083l-.081.331-.081.248a3.305,3.305,0,0,0-.161.5,28.868,28.868,0,0,0-1.453,4.132l-.4,1.818-.242.992-.242.992c0,.083.081.165.161.248v.083l.081.083c0,.083.081.083.081.165L1.188,83.3l-.081.578-.161.578a1.758,1.758,0,0,0,.4.248,5.122,5.122,0,0,1,.4-.992l.161-.5.161-.5c.323-.083.565-.165.646-.165a1.164,1.164,0,0,0,.323-.578l.081-.248.242-.331.565-1.24.323-.578.323-.661.161.248.161.248a1.437,1.437,0,0,0-.081.578V80.4a1,1,0,0,0,.242-.165.367.367,0,0,0,.081-.248l.081-.413.081-.413c.081-.331.161-.661.242-.909a9.512,9.512,0,0,1,.727-1.57.291.291,0,0,1,.081-.165v-.083l.161-.165a45.489,45.489,0,0,0,1.453-4.628l.161-.083.161-.083c.161-.083.242-.165.323-.165s.161-.083.323-.083l.323-.083,3.31-1.157.888-.331.484-.165.484-.165.081.165.081.165c0,.083.081.165.081.248l.081.5.081.5.242,1.24.242,1.24.323,1.735.4,1.735.081.5.081.5a4.736,4.736,0,0,0,.323.992,5.777,5.777,0,0,1,.242.661l.081.331c0,.083.081.248.081.331.081.165.081.331.161.5l.161.5a5.554,5.554,0,0,0,.484.992,1.357,1.357,0,0,1,.242.5l.242.413.081.248.081.248c.081.165.242.248.323.331h.161a1.815,1.815,0,0,1,.242.413l.081.165.081.248a1.936,1.936,0,0,0,.646.744h.4a1.344,1.344,0,0,0,.565-.083c.081.083.161.248.323.413l.081.165.161.165a1.533,1.533,0,0,0,.807.661c.081-.083.161-.248.323-.413l.081-.165v-.165l-.161-.331-.242-.578c.4.661.888,1.488,1.534,2.645l.727,1.322a7.438,7.438,0,0,1,.727,1.322v-.083a.76.76,0,0,0-.081-.413C25.163,89.743,25.163,89.661,25.082,89.578ZM9.018,59.993c0-.083.081-.165.161-.331l.081-.083.081-.165a34.191,34.191,0,0,1,1.614-3.471v.165c0,.083,0,.165-.081.165l-.323.826a1.575,1.575,0,0,1-.323.744c-.161.331-.323.744-.565,1.322l-.323.661-.323.661a.631.631,0,0,1-.081-.413C8.937,60.158,8.937,60.075,9.018,59.993Zm-.646,2.066H8.292v-.331a.632.632,0,0,1,.161-.331l.161-.331.161.083Zm5,5.289c-.242.083-.565.165-1.049.331l-.565.165-.565.165a20.253,20.253,0,0,1-2.26.661v-.248l.081-.248c0-.165.081-.248.081-.331l.565-1.653c.242-.661.4-1.157.565-1.653a23.881,23.881,0,0,1,.969-2.231l.969-2.231.242-.5.161-.248c0-.083.081-.248.081-.331a2.833,2.833,0,0,1,.323.992l.081.5.081.5.161.992.161.992.161.909.161.909a6.236,6.236,0,0,0,.161.992l.081.5.081.5C13.942,66.769,13.7,67.017,13.377,67.348Zm6.3,4.38-.646-1.735-.646-1.735c.081-.165.161-.248.323-.248h.161c.081,0,.161,0,.161-.083a29.24,29.24,0,0,1,1.13,3.8,30.234,30.234,0,0,1,.888,3.554C20.723,74.455,20.32,73.3,19.674,71.728ZM21.53,83.793a.709.709,0,0,1-.161-.5,1.208,1.208,0,0,1-.4-.5c0-.083-.081-.165-.081-.331L20.8,82.14a1.947,1.947,0,0,1,.565,1.157.579.579,0,0,1,.323.413l.081.083v.083c0,.083.081.165.161.248A.879.879,0,0,1,21.53,83.793Z" transform="translate(46.677 -45.2)"/>
              <path id="Path_288" data-name="Path 288" class="cls-2" d="M83.593,67.114l-.081-.413c0-.248-.081-.5-.081-.744A5.7,5.7,0,0,0,83.27,64.8q-.242-.868-.727-2.231c-.081-.165-.081-.331-.161-.413a.81.81,0,0,0-.4-.331,1.907,1.907,0,0,1-.565.248l-.646.248-.081-.248c0-.083-.081-.165-.081-.248a18.289,18.289,0,0,0-.323-2.066,26.425,26.425,0,0,0-.727-3.388.854.854,0,0,0-.484-.661H78.83a3.593,3.593,0,0,0-1.453.331l-.323-.331-.323-.248-.646-.661a3.513,3.513,0,0,0-1.534-.992,4.888,4.888,0,0,1-1.13-.578,1.326,1.326,0,0,0-.888-.331h-.323a5.527,5.527,0,0,0-1.049.413l-.484.248-.323.248-.242.165-.323-.248c-.081-.083-.242-.165-.323-.248a.756.756,0,0,0-.565-.165h0l-.242.413-.242.331-.484.661c0,.083-.161.165-.242.331l-.242.331a7.953,7.953,0,0,0-1.13,2.149.259.259,0,0,1-.081.165l-.081.083-.081-.083L66,57.611c-.081-.083-.161-.083-.242-.165l-.161.413-.161.331a5.778,5.778,0,0,1-.242.661,11,11,0,0,0-.242,1.074L64.784,61a9.472,9.472,0,0,0-.242,1.983l-.081.578-.081.578A6.91,6.91,0,0,0,64.3,65.3v4.958h.4V65.048a.308.308,0,0,1,.081.248v2.066a14.256,14.256,0,0,0,.161,2.066l.081.413.081.413a1.682,1.682,0,0,0,.161.744l.323.909.323.909a12.026,12.026,0,0,1,.484,1.735,1.416,1.416,0,0,0,.161.413l.081.165.081.165a.506.506,0,0,0,.081-.331V74.8l-.081-.248V74.3l.161.165a12.636,12.636,0,0,0,1.453,2.975.639.639,0,0,1,.161.413l.081.248.081.248a1.586,1.586,0,0,1,.161.661.521.521,0,0,0,.4.5l.161-.083a.292.292,0,0,0,.242-.083,5.1,5.1,0,0,1,.565,1.157l.242.578.242.661a1.194,1.194,0,0,0-.161.5,1.15,1.15,0,0,0,.4.744,1.118,1.118,0,0,0,.323.248l.323.165.242.165.081.083.081.083v.331l-.081.331.081.083.081.083.161.165H73.1c.081,0,.081-.083.161-.083l.081-.083.081-.083a.4.4,0,0,1,.484,0,1.482,1.482,0,0,0-.4.578l-.081.413c0,.165-.081.248-.081.331l.484.165.484.165.161-.083.161-.083q.242-.124.242-.248a5.4,5.4,0,0,1,1.372-1.322,7.6,7.6,0,0,0,2.5-2.892,1.283,1.283,0,0,1,.484-.661,10.686,10.686,0,0,0,2.825-3.554l.081.083v.413A29.249,29.249,0,0,1,80.2,82.568a6.572,6.572,0,0,1-1.7,2.149,11.346,11.346,0,0,0-1.614,1.4,3.122,3.122,0,0,1-.727.744l-.727.826a.259.259,0,0,1-.081.165l-.081.165a.349.349,0,0,1,.242.083l.323-.165.323-.165a4.752,4.752,0,0,0,.646-.331,9.242,9.242,0,0,0,2.18-2.231,21.672,21.672,0,0,1,1.937-1.983,5.079,5.079,0,0,0,1.453-2.149,7.643,7.643,0,0,0,.484-2.645v-.5a13.8,13.8,0,0,1,.4-2.892,4.4,4.4,0,0,0,.161-1.157l.081-.578.081-.578c-.081-.165-.242-.248-.323-.413v-.5a12.229,12.229,0,0,0,.323-2.892v-.744a1.647,1.647,0,0,0-.081-.661ZM64.865,64.3h0l-.081-.992h.081Zm2.583.578-.081-.413v-.413a4.149,4.149,0,0,1-.081-.909v-.413a7.443,7.443,0,0,1,.161-1.4Zm8.8-4.545c-.484-.248-1.13-.578-1.857-.992l-.888-.5-.888-.5v-.083l.323.083.888.248.888.165A2.01,2.01,0,0,1,76.247,60.338Zm-1.453-2.066-.081.083-2.26-.661-.242-.578h.081Zm-3.633-2.892.081-.165.081-.165a11.848,11.848,0,0,1,2.18,1.983,7.451,7.451,0,0,1-1.211-.578l-.4-.165-.323-.165a2.4,2.4,0,0,0-.646-.331A1.106,1.106,0,0,0,71.162,55.379Zm7.346,14.214a26.647,26.647,0,0,1-1.13,7.6,14.2,14.2,0,0,1-.807,2.231,4.7,4.7,0,0,1-.969,1.488,2.977,2.977,0,0,0-.646.992,2.511,2.511,0,0,1-.4.578.725.725,0,0,1-.565.248,1.129,1.129,0,0,1-.484-.165,2.7,2.7,0,0,0-.969-.5.911.911,0,0,1-.646-.579l-.565-1.24-.565-1.24v-.248a5.311,5.311,0,0,0,.646.578c.081-.165.161-.248.242-.413l.081-.165.081-.165-.161-.413-.161-.413a6.377,6.377,0,0,1-.323-.909,17.569,17.569,0,0,1-.646-3.223l-.242-2.727-.081-.578v-.826c0-.5-.081-.826-.081-1.074-.081-.826-.081-1.735-.081-2.81v-2.81a5.613,5.613,0,0,1,.081-1.074l.081-.5.081-.5a4.9,4.9,0,0,1,.4-1.735,1.452,1.452,0,0,1,.969-.992l.161.165.161.165a5.021,5.021,0,0,0,1.372.992c1.292.661,2.26,1.24,2.906,1.653A8.544,8.544,0,0,1,78.1,62.982a2.1,2.1,0,0,1,.323,1.074,27.751,27.751,0,0,1,.161,2.81v2.727Zm2.341-5.95a.456.456,0,0,1,.242.413v.413c.081.165.081.331.161.5l.081.5a4.117,4.117,0,0,1,.081.992v.992a3.485,3.485,0,0,1-.484-1.653v-.083a1.649,1.649,0,0,0-.081-.578V63.643Zm.484,5.7v.165a11.587,11.587,0,0,1-.323,2.4c0-.248-.081-.578-.081-.992V68.354c0,.083.081.165.081.248l.081.248A.721.721,0,0,1,81.333,69.345Zm.727,6.611a4.3,4.3,0,0,1-.727,1.983A8.647,8.647,0,0,1,79.4,80.254l.161-.413.969-1.488.969-1.488a1.732,1.732,0,0,1,.323-.5l.161-.248.081-.165ZM76.893,86.783a1.267,1.267,0,0,1,.646-.661A1.267,1.267,0,0,1,76.893,86.783Zm5.57-8.677a5.822,5.822,0,0,1-2.018,4.876v-.248a29,29,0,0,0,1.937-4.71v.083Z" transform="translate(34.341 -46.537)"/>
              <path id="Path_355" data-name="Path 355" class="cls-2" d="M87.126,69.717l-.1-.489c0-.293-.1-.587-.1-.88a6.749,6.749,0,0,0-.191-1.369q-.287-1.027-.86-2.64c-.1-.2-.1-.391-.191-.489a.958.958,0,0,0-.478-.391,2.256,2.256,0,0,1-.669.293l-.764.293-.1-.293c0-.1-.1-.2-.1-.293a21.633,21.633,0,0,0-.382-2.444,31.263,31.263,0,0,0-.86-4.009,1.011,1.011,0,0,0-.573-.782h-.287a4.251,4.251,0,0,0-1.719.391l-.382-.391-.382-.293-.764-.782a4.156,4.156,0,0,0-1.815-1.173,5.783,5.783,0,0,1-1.337-.684,1.569,1.569,0,0,0-1.051-.391h-.382a6.538,6.538,0,0,0-1.242.489l-.573.293-.382.293-.287.2-.382-.293c-.1-.1-.287-.2-.382-.293a.894.894,0,0,0-.669-.2h0l-.287.489-.287.391-.573.782c0,.1-.191.2-.287.391l-.287.391a9.409,9.409,0,0,0-1.337,2.542.306.306,0,0,1-.1.2l-.1.1-.1-.1-.1-.1c-.1-.1-.191-.1-.287-.2l-.191.489-.191.391a6.835,6.835,0,0,1-.287.782,13.006,13.006,0,0,0-.287,1.271l-.191,1.271a11.206,11.206,0,0,0-.287,2.347l-.1.684-.1.684a8.174,8.174,0,0,0-.1,1.369v5.866h.478v-6.16a.365.365,0,0,1,.1.293V70.01a16.865,16.865,0,0,0,.191,2.444l.1.489.1.489a1.99,1.99,0,0,0,.191.88l.382,1.075.382,1.075a14.228,14.228,0,0,1,.573,2.053,1.675,1.675,0,0,0,.191.489l.1.2.1.2a.6.6,0,0,0,.1-.391v-.2l-.1-.293v-.293l.191.2a14.949,14.949,0,0,0,1.719,3.52.756.756,0,0,1,.191.489l.1.293.1.293a1.877,1.877,0,0,1,.191.782.616.616,0,0,0,.478.587l.191-.1a.346.346,0,0,0,.287-.1,6.029,6.029,0,0,1,.669,1.369l.287.684.287.782a1.412,1.412,0,0,0-.191.587,1.361,1.361,0,0,0,.478.88,1.322,1.322,0,0,0,.382.293l.382.2.287.2.1.1.1.1v.391l-.1.391.1.1.1.1.191.2H74.71c.1,0,.1-.1.191-.1l.1-.1.1-.1a.469.469,0,0,1,.573,0,1.753,1.753,0,0,0-.478.684l-.1.489c0,.2-.1.293-.1.391l.573.2.573.2.191-.1.191-.1q.286-.147.287-.293a6.39,6.39,0,0,1,1.624-1.564A8.993,8.993,0,0,0,81.4,86.729a1.518,1.518,0,0,1,.573-.782,12.642,12.642,0,0,0,3.343-4.2l.1.1v.489A34.6,34.6,0,0,1,83.114,88a7.775,7.775,0,0,1-2.006,2.542A13.423,13.423,0,0,0,79.2,92.2a3.692,3.692,0,0,1-.86.88l-.86.978a.306.306,0,0,1-.1.2l-.1.2a.413.413,0,0,1,.287.1l.382-.2.382-.2a5.621,5.621,0,0,0,.764-.391,10.934,10.934,0,0,0,2.579-2.64,25.643,25.643,0,0,1,2.292-2.347,6.009,6.009,0,0,0,1.719-2.542,9.043,9.043,0,0,0,.573-3.129v-.587a16.323,16.323,0,0,1,.478-3.422,5.209,5.209,0,0,0,.191-1.369l.1-.684.1-.684c-.1-.2-.287-.293-.382-.489V75.29a14.469,14.469,0,0,0,.382-3.422v-.88a1.948,1.948,0,0,0-.1-.782ZM64.969,66.392h0l-.1-1.173h.1Zm3.056.684-.1-.489V66.1a4.908,4.908,0,0,1-.1-1.075v-.489a8.806,8.806,0,0,1,.191-1.662ZM78.435,61.7c-.573-.293-1.337-.684-2.2-1.173l-1.051-.587-1.051-.587v-.1l.382.1,1.051.293,1.051.2A2.378,2.378,0,0,1,78.435,61.7Zm-1.719-2.444-.1.1-2.674-.782-.287-.684h.1Zm-4.3-3.422.1-.2.1-.2a14.018,14.018,0,0,1,2.579,2.347,8.815,8.815,0,0,1-1.433-.684l-.478-.2-.382-.2a2.833,2.833,0,0,0-.764-.391A1.309,1.309,0,0,0,72.418,55.833ZM81.109,72.65a31.526,31.526,0,0,1-1.337,8.995,16.806,16.806,0,0,1-.955,2.64,5.559,5.559,0,0,1-1.146,1.76,3.522,3.522,0,0,0-.764,1.173,2.972,2.972,0,0,1-.478.684.858.858,0,0,1-.669.293,1.336,1.336,0,0,1-.573-.2,3.2,3.2,0,0,0-1.146-.587,1.077,1.077,0,0,1-.764-.684l-.669-1.467L71.94,83.8V83.5a6.284,6.284,0,0,0,.764.684c.1-.2.191-.293.287-.489l.1-.2.1-.2-.191-.489-.191-.489a7.543,7.543,0,0,1-.382-1.075,20.786,20.786,0,0,1-.764-3.813l-.287-3.226-.1-.684v-.978c0-.587-.1-.978-.1-1.271-.1-.978-.1-2.053-.1-3.324V64.633a6.641,6.641,0,0,1,.1-1.271l.1-.587.1-.587a5.8,5.8,0,0,1,.478-2.053,1.718,1.718,0,0,1,1.146-1.173l.191.2.191.2A5.94,5.94,0,0,0,75,60.526c1.528.782,2.674,1.467,3.438,1.955a10.109,10.109,0,0,1,2.2,2.347,2.486,2.486,0,0,1,.382,1.271,32.829,32.829,0,0,1,.191,3.324V72.65Zm2.77-7.04a.54.54,0,0,1,.287.489v.489c.1.2.1.391.191.587l.1.587a4.87,4.87,0,0,1,.1,1.173v1.173a4.123,4.123,0,0,1-.573-1.955v-.1a1.951,1.951,0,0,0-.1-.684V65.61Zm.573,6.746v.2a13.707,13.707,0,0,1-.382,2.835c0-.293-.1-.684-.1-1.173V71.183c0,.1.1.2.1.293l.1.293A.853.853,0,0,1,84.451,72.357Zm.86,7.822a5.091,5.091,0,0,1-.86,2.347,10.23,10.23,0,0,1-2.292,2.738l.191-.489,1.146-1.76,1.146-1.76a2.049,2.049,0,0,1,.382-.587l.191-.293.1-.2ZM79.2,92.986a1.5,1.5,0,0,1,.764-.782A1.5,1.5,0,0,1,79.2,92.986Zm6.59-10.266c0,2.542-.764,4.5-2.388,5.769V88.2a34.313,34.313,0,0,0,2.292-5.573v.1Z" transform="translate(-64.3 -49.76)"/>
              <path id="Path_289" data-name="Path 289" class="cls-2" d="M72.965,64.465V64.3a.841.841,0,0,0-.323.578l-.081.578a16.811,16.811,0,0,0-.161,1.818l.161.413q.121-.62.242-1.488l.081-.331V65.54c0-.248.081-.5.081-.661v-.413Z" transform="translate(32.78 -48.516)"/>
              <path id="Path_290" data-name="Path 290" class="cls-2" d="M65.335,86.094h0l-.081-.083c-.081-.083-.242-.165-.4-.331l-.4-.331a2.815,2.815,0,0,1-.727-.5,7.157,7.157,0,0,1-1.534-2.149,29.679,29.679,0,0,1-1.776-4.463,5.776,5.776,0,0,0-.323-.826l-.323-.826a11.443,11.443,0,0,1-.484-1.653,4.278,4.278,0,0,0-.161-.744l-.081-.413-.081-.413a6.627,6.627,0,0,1-.161-1.157V71.55l-.242.083c-.081,0-.161.083-.242.083v.826a4.852,4.852,0,0,0,.081.992l.081.5.081.5a.637.637,0,0,0,.081.331l.081.165v.165c0,.165.081.248.081.413s0,.248-.081.331l-.081-.083.081-.083a.291.291,0,0,0-.081-.165l-1.049-2.562c-.323-.826-.646-1.653-.888-2.231.081-.165.161-.413.242-.578l-.323.165h0a12.059,12.059,0,0,1-.646-2.4c0-.165-.081-.413-.081-.578l-.081-.331-.081-.248a2.145,2.145,0,0,1,.807-1.57l-.081-.165-.161-.165-.081.083-.081.165c-.081.083-.161.165-.161.248l-.161.165-.161.248c-.081.165-.161.248-.161.413a1.647,1.647,0,0,0-.081.661v.331a2.985,2.985,0,0,1,.081.5l.081.5c.161.661.4,1.57.727,2.562a.632.632,0,0,0-.161.331l-.161.5-.161.5a5.554,5.554,0,0,1-.484.992c-.242.5-.565.992-.969,1.653l-.484.826-.484.826a2.675,2.675,0,0,0-.807.5,7.726,7.726,0,0,0-1.614,2.066A2.024,2.024,0,0,1,50,79.9a9.709,9.709,0,0,1-2.745.5l.242-.248a1.155,1.155,0,0,0,.727-.661c0-.083.081-.165.161-.248l.081-.083.081-.083a4.249,4.249,0,0,1,.484-.578,2.8,2.8,0,0,0-.565.083h-.242l-.4.083a2.961,2.961,0,0,1-.807.083,5.873,5.873,0,0,0-1.453.331l-.242.083-.242.083a1.345,1.345,0,0,1-.4.165,8.1,8.1,0,0,1-2.745.578,6.462,6.462,0,0,1-1.614-1.24,9.558,9.558,0,0,1,1.13.248c.323.083.565.165.646.165h.081a.86.86,0,0,0,.4-.083l-.323-.083-.323-.083a2.017,2.017,0,0,0-.565-.165c-.807-.331-1.372-.578-1.857-.744a.808.808,0,0,1-.565-.578c-.242-.744-.323-1.322-.484-1.653l-.161-.661-.081-.661a5.775,5.775,0,0,0-.4-1.4,11.588,11.588,0,0,1-.727-2.231V68.988a2.9,2.9,0,0,0-.4-1.488,7.522,7.522,0,0,1,1.453-2.562c.4-.413.807-.909,1.372-1.488l.727-.744.727-.661a.28.28,0,0,1,.161-.083H41.2l.081-.083v.5c-.081.661-.161,1.24-.242,1.818l-.161,1.157.081,1.157L40.8,67.999a5.991,5.991,0,0,0-.081,1.157v1.983a7.181,7.181,0,0,0,.4,2.149l.081.083.081.165.242.248V73.12a.308.308,0,0,0-.081-.248,12.73,12.73,0,0,1-.4-3.058v-.165l.081-.5.081-.5.323-2.81.161-1.4.161-1.322v-.578c0-.248.081-.413.081-.578.081-.248.161-.661.323-1.157a.414.414,0,0,1,.4-.331h.081l.081.083v.083c0,.083.081.083.081.165a30.9,30.9,0,0,1,1.614,3.14l.323.578.323.578c0,.083.081.165.081.248s0,.165-.081.165V65.6c.081.083.242.165.323.248v.413c0,.083,0,.165-.081.165l-.081.165c.081.083.161.083.323.083h.242l.161-.083H46.2c.081,0,.161,0,.161.083l.161.331.161.331a7.653,7.653,0,0,1,.4.661,9.863,9.863,0,0,0,1.372,1.735,7.393,7.393,0,0,1,.727.826l.4.413.4.413h.161l-.081-.165L50,71.136l-.081-.083h0c0-.331-.081-.661-.081-1.157l-.081-.578-.081-.578-.807-1.322-.4-.661-.4-.661c.081-.083.242-.083.484-.165l.484-.083a1.426,1.426,0,0,0,.888-.578l-.242-.248-.323-.413a7.982,7.982,0,0,0-.565-.744c-.323-.331-.807-.909-1.453-1.57l-.727-.826-.727-.826c-.484-.578-.969-1.074-1.372-1.653a3.9,3.9,0,0,1-.4-.826,1.647,1.647,0,0,1-.081-.661V56.84a.749.749,0,0,0-.484-.744l-.242.083h-.161c-.161,0-.242.083-.4.083a6.655,6.655,0,0,1-.727-.661c-.081.083-.161.165-.242.165l-.242.165H41.36a3.48,3.48,0,0,0-.807.165l-.242.083-.242.083c-.161.083-.323.083-.484.165l-.242.165c-.081.083-.161.165-.161.248a1.922,1.922,0,0,1-.727.661c-.4.165-.807.413-1.372.661a4.121,4.121,0,0,0-1.534,1.322,13.6,13.6,0,0,0-1.857,3.554,17.16,17.16,0,0,0-1.211,4.876,15.635,15.635,0,0,0-.081,1.9v1.074a34.718,34.718,0,0,0,.646,3.471c0,.083.081.165.081.248l.081.165.081.165h.081v-.909l.081.248.081.248a1.416,1.416,0,0,1,.161.413,9.081,9.081,0,0,1,.484.909l.484.826a5.564,5.564,0,0,1,.646,1.488c-.081,0-.161-.083-.323-.165L34.9,77.83l-.081-.165a1.082,1.082,0,0,0-.484-.413,5.487,5.487,0,0,0,.484.992A17.144,17.144,0,0,0,36.033,79.9a13.063,13.063,0,0,0,2.825,2.644.6.6,0,0,1,.323-.083l.4.331.4.331a7.848,7.848,0,0,1,.727.578,4.226,4.226,0,0,0,.888.578l.242.165a.291.291,0,0,0-.081.165,13.592,13.592,0,0,0-2.018,3.719,3.653,3.653,0,0,0-.081.413v.5c.161.165.484.413.807.744a.433.433,0,0,1,.161.331l.081.165.081.165a1.308,1.308,0,0,0,.4.661,2.88,2.88,0,0,0,.565-1.57v-.083a1.486,1.486,0,0,1,.081-.5l.081-.248.081-.248a.631.631,0,0,1,.081.413l-.081.744c0,.331-.081.5-.081.661v1.983a18.354,18.354,0,0,0,.4,3.388,5.3,5.3,0,0,0,.646,1.818,10.387,10.387,0,0,0,2.5,2.479l.323.083a3.348,3.348,0,0,0-.565-1.322,1.9,1.9,0,0,1-.4-1.24v-.248l-.081-.165-.161-.661-.161-.661a14.113,14.113,0,0,1-.565-3.471c0-.578-.081-1.157-.081-1.653a20.948,20.948,0,0,1,.161-2.4c.161-1.074.484-2.149.727-3.14a6.262,6.262,0,0,0,1.7-.992A6.013,6.013,0,0,1,48.383,83.2l.4-.083a3.425,3.425,0,0,0,.4-.083c.161,0,.323-.083.484-.083H50v.165a7.7,7.7,0,0,1-2.422,2.066,1.686,1.686,0,0,0-.484.331l-.484.331a.477.477,0,0,0,.323.083h.081l.4-.165.4-.165c.323-.165.565-.331.727-.413A19.968,19.968,0,0,0,50.159,83.7a4.92,4.92,0,0,1,1.857-1.4l.081-.083.081-.083a6.781,6.781,0,0,0,2.26-2.727c.161-.413.4-.909.646-1.488l.323-.744.323-.744c0-.165-.081-.331-.081-.578a4.116,4.116,0,0,1,.081-.992l.081-.413.081-.413a4.278,4.278,0,0,0,.161-.744,7.63,7.63,0,0,1,.484-2.149,4.079,4.079,0,0,1,.242.578l.807,2.066.888,2.066a8.888,8.888,0,0,1,.565,1.818l.081.413c0,.165.081.248.081.413.161.661.4,1.24.565,1.735a20.108,20.108,0,0,0,1.7,3.719,6.071,6.071,0,0,0,1.776,1.983,3.675,3.675,0,0,0,2.018.661h.4a5.079,5.079,0,0,1-.323-.5ZM36.921,62.624a3.121,3.121,0,0,1,.727-.744l-.4.909-.161.5-.242.5c0-.165-.081-.331-.081-.5A1.3,1.3,0,0,1,36.921,62.624Zm-.646,2.727v-.826a.461.461,0,0,1,.161.413A.3.3,0,0,1,36.275,65.352Zm.565,3.884-.081-.331a.506.506,0,0,0-.081-.331v-.083a1.215,1.215,0,0,1,.161-.578c0,.165.081.413.081.578A1.875,1.875,0,0,1,36.84,69.236Z" transform="translate(40.49 -47.005)"/>
              <path id="Path_291" data-name="Path 291" class="cls-2" d="M116.891,65.922a.607.607,0,0,0-.565.331,1.468,1.468,0,0,0-.4.661l-.4.992-.4.992c-.323.826-.646,1.488-.807,1.9s-.4.826-.646,1.4l-.646,1.4v-.165a2.34,2.34,0,0,1,.081-.744l.161-1.157.161-1.24.161-1.24c0-.248.081-.5.081-.909l.081-.909.081-1.4.081-.578.081-.578c0-.413.081-.826.081-1.074v-1.24l-.081-.578v-.744l-.081-.165-.242-.826-.242-.826-.161-.661-.242-.744-.081-.083-.081-.083-.081-.083a6.061,6.061,0,0,0-.4.5,7.4,7.4,0,0,0-.161,1.322l-.242.5-.242.5c-.081-.165-.081-.413-.161-.661l-.161-.661a4.414,4.414,0,0,0-.646-1.24l-.4.083-.4.083v.578a1.39,1.39,0,0,1-.484.083,2.5,2.5,0,0,0-.4,1.157v.083l.081.661.081.661.081,1.24.081,1.24v.165l-.161.661.081.5a5.2,5.2,0,0,1,.081,1.074v3.058a4.279,4.279,0,0,1-.161,1.074l-.081.331v.331a8.818,8.818,0,0,1-.323,2.314l-.081.413-.081.413a6.633,6.633,0,0,1-.323.744,4.784,4.784,0,0,0-.565,1.818,26.568,26.568,0,0,1-1.049,4.215c0,.083-.081.083-.081.165l-.081.083-.081.083-.161-.248-.161-.248a1.815,1.815,0,0,0-.242-.413,18.434,18.434,0,0,1-.888-2.231l-.888-2.4a20.464,20.464,0,0,1-.727-2.479,2.141,2.141,0,0,0-.161-.578l-.081-.331-.081-.331h-.4a3.231,3.231,0,0,0-.565-.165.841.841,0,0,1-.4-.5c-.081-.331-.242-.744-.4-1.24l-.161-.578-.161-.578a1.194,1.194,0,0,0-.161-.5l-.081-.5a2.793,2.793,0,0,0-.4-.992,2.14,2.14,0,0,1-.161-.578.631.631,0,0,1,.081-.413l-.161-.578-.161-.5a7.81,7.81,0,0,1-.323-1.074l-.081-.578-.161-.578a8.787,8.787,0,0,1-.161-1.24,2.195,2.195,0,0,0-.242-.909c-.081.083-.161.165-.161.248l-.081.083-.081.083-.161.165c0-.578.081-1.157.081-1.818V58.32l.081-.826c-.081,0-.161-.083-.242-.165l-.081-.248L98.243,57V55.923a4.466,4.466,0,0,1,.081-1.074c0-.248.081-.578.081-.992l.081-.5.081-.578h-.484a.594.594,0,0,1-.4-.083l-.081.165-.081.083a.506.506,0,0,0-.081.331l-.081.331-.081.331c0,.248-.081.5-.081.661,0,.5-.081,1.157-.081,1.983l-.081,1.983c0,.331-.081.826-.081,1.4v.744a1.875,1.875,0,0,1-.081.744l-.242-.5-.081-.5-.081-.5c-.081-.413-.081-.744-.161-.992a4.117,4.117,0,0,1-.081-.992,4.943,4.943,0,0,1,.161-1.074v-.578c-.081,0-.161-.083-.323-.083h-.323a1.129,1.129,0,0,0-.484-.165H95.1l-.081.083-.081.083a1.782,1.782,0,0,0-.646,1.4v.165c0,.331.081.744.081,1.157v1.074a.291.291,0,0,0,.081.165V60.3l.081.083a.506.506,0,0,1,.081.331l.161.744.081.744.081.661c.081.248.081.5.161.578l.646,2.562.646,2.562c.081.413.161.909.323,1.488l.323,1.488a.259.259,0,0,0,.081.165l.081.083v.083c0,.083,0,.165-.081.165a7.038,7.038,0,0,1-.565-1.57l-.242-.744-.242-.744-.161-.744-.161-.744c-.161-.661-.323-1.157-.4-1.488a24.969,24.969,0,0,1-1.13-4.711v-.826l-.081-.083-.081-.083c0-.083-.081-.083-.081-.165-.081-.331-.081-.744-.161-1.157a1.758,1.758,0,0,0-.323-.909l-.081.5v.165a7.3,7.3,0,0,0,.081,1.24l.081.744c0,.248.081.5.081.661l.081.826.081.826.081.578.081.578.081-.083h.081l.565,2.066c.242.826.4,1.488.565,2.066a39.739,39.739,0,0,0,1.292,4.049,5.746,5.746,0,0,0,.484,1.074l.242.5.242.5L98,75.591l.484,1.24c.4.992.807,1.818,1.13,2.479a13.741,13.741,0,0,0,1.211,2.066,4.751,4.751,0,0,0,.646.826l.323.413.323.413.646.5c.161.248.323.413.4.578a5.149,5.149,0,0,0,1.049.909l.161.165.081.083.081.083.161.165.242.165.484.248a1.147,1.147,0,0,0,.565.165l.323.083.323.083a1,1,0,0,0,.484.083,1.345,1.345,0,0,0,.565-.083,1.6,1.6,0,0,0,.727-.744l.161-.331.161-.331a1.78,1.78,0,0,1,.484-.578.291.291,0,0,0,.081-.165l.081-.083.081-.083a8.046,8.046,0,0,1,.888-1.157l.161.331.161.331a3.13,3.13,0,0,0,.4.5c.081.083.081.165.161.331l.161.331a1.78,1.78,0,0,0,.484.578v-.909a3.525,3.525,0,0,0,.242-1.488v-.331a.917.917,0,0,0-.081-.413v-.165l-.081-.165v-.744l.565-.578.565-.578a12.936,12.936,0,0,1,1.049-1.074,3.617,3.617,0,0,0,.807-1.24,17.084,17.084,0,0,0,.727-2.149,22,22,0,0,0,.646-2.892,11.877,11.877,0,0,1,.161-1.488l.161-1.488v-.661l.081-.578q.121-.744.242-1.24c0-.165.081-.248.081-.413a1.194,1.194,0,0,0-.161-.5A.116.116,0,0,0,116.891,65.922ZM100.827,80.137A36.919,36.919,0,0,1,98.4,74.848V74.6a4.64,4.64,0,0,1,.807,1.24,4.921,4.921,0,0,0,.323.661l.323.661c.242.5.484.992.727,1.57l.4.744.484.744.484.826.484.909A5.043,5.043,0,0,1,100.827,80.137Zm7.1,2.892h-.323a1.172,1.172,0,0,1-.565-.083l-.4.578-.081-.083.081-.165v-.248h-.323a.477.477,0,0,1-.323-.083.291.291,0,0,1-.081-.165l.081-.083-.081-.083h.888a1.873,1.873,0,0,0,1.372-.5v.909Zm8.557-13.553-.081,1.322a5.114,5.114,0,0,1-.161,1.24,18.021,18.021,0,0,1-.484,2.562l-.242.826a3.9,3.9,0,0,1-.242.744,6.388,6.388,0,0,1-.807,1.488c-.161.165-.323.413-.565.661l-.323.331-.323.331-.484.5-.484.413-.081.083h-.081l-.081.083v-.331l-.081-.331c0-.248-.081-.5-.081-.661v-.413a2.605,2.605,0,0,1,.081-.826,5.225,5.225,0,0,0,.242-.826l.081-.413.081-.413a13.585,13.585,0,0,1,.484-1.4c.323-.661.646-1.488,1.211-2.562l1.13-2.562a5.746,5.746,0,0,1,.484-1.074l.242-.5.242-.578a1.6,1.6,0,0,1,.727-.744A21.606,21.606,0,0,0,116.487,69.476Z" transform="translate(28.732 -46.502)"/>
              <path id="Path_292" data-name="Path 292" class="cls-2" d="M147.973,74.668l-1.049-.661-.484-.331-.565-.413c0-.083.081-.165.161-.331l.081-.165.081-.165a1.56,1.56,0,0,0,.161-.578v-.165l-.323-.331-.323-.248-.646-.578.081-.165.081-.165c.081-.083.161-.248.242-.331a7.29,7.29,0,0,0,1.453-2.975,8.425,8.425,0,0,0,.161-1.322,6.521,6.521,0,0,0-.161-1.24,4.651,4.651,0,0,0-.969-1.488l-.081-.165-.081-.248v-.331a7.7,7.7,0,0,0-1.049-2.975l-.161-.331-.161-.331a1.386,1.386,0,0,0-.484-.5,7.869,7.869,0,0,0-2.745-1.9l-.161-.083h-.161c-.081-.165-.161-.413-.242-.578l-.565-.165a2.017,2.017,0,0,0-.565-.165l-.323-.083-.323-.083a1.542,1.542,0,0,0-.565-.083h-.727a7.669,7.669,0,0,0-1.453.083,6.958,6.958,0,0,0-4.521,2.975,10.27,10.27,0,0,0-1.7,3.8l-.161.5-.081.248-.081.248-.081-.083h-.081l-.081-.083-.888-.5c-.323-.248-.646-.413-.888-.578a1.129,1.129,0,0,0-.484-.165H126.9c-.161.331-.242.744-.4,1.074a.709.709,0,0,1,.161.5v.331l-.081.165v.661a6.447,6.447,0,0,0,1.049,1.074l.323.248.323.248a1.764,1.764,0,0,1,.565.5v.909a1.252,1.252,0,0,1-.081.578V70.7l.081.5v2.562a9.7,9.7,0,0,0,.646,3.388,4.535,4.535,0,0,0,1.372,2.066,4.527,4.527,0,0,1,1.372,1.653,9.913,9.913,0,0,0,1.857,2.644,2.968,2.968,0,0,1,.323.413l-.484-.083-.4-.083a4.55,4.55,0,0,0-.807-.165,7.376,7.376,0,0,1-1.614-.661v.331l.161.165.161.165c.081.165.242.248.323.331a6.514,6.514,0,0,1,1.614,1.735,3.41,3.41,0,0,0,1.937.661h.323a5.565,5.565,0,0,0,2.906-.826,2.82,2.82,0,0,1,1.292-.5,3.9,3.9,0,0,0,1.211-.248,5.846,5.846,0,0,0,3.229-1.735l.081-.165.081-.165a.506.506,0,0,0,.081-.331,2.6,2.6,0,0,1,.161-.661l.081-.331.081-.331a3.654,3.654,0,0,1,.081-.413c0-.165,0-.248-.081-.331l-.484.331a1.757,1.757,0,0,0-.4.248c-.081,0-.161.083-.242.083l-.081.083-.161.083c-.081,0-.161.083-.242.083a.477.477,0,0,1-.323-.083,12.582,12.582,0,0,0,1.13-2.562l.484-1.4a9,9,0,0,1,.484-1.4h.323c.081,0,.242.083.323.083a5.311,5.311,0,0,1,1.453.248l.727.165a2.719,2.719,0,0,0,.727.083h.727c.323,0,.565-.083.727-.083l-1.049-.661ZM137.963,57.4l.242.083a.292.292,0,0,1,.242.083.579.579,0,0,1,.323.413,2.959,2.959,0,0,0-.888-.083,2.186,2.186,0,0,0-.727.083C137.236,57.727,137.559,57.562,137.963,57.4Zm-2.018.331c.081,0,.161-.083.323-.083h.161a.42.42,0,0,1-.323.413l-.161.083c-.081,0-.161.083-.242.083a1.139,1.139,0,0,1-.242-.331Zm-1.615,3.388c0-.413.161-.744.484-.826a1.814,1.814,0,0,0-.242.413c-.081.083-.081.165-.161.248a.291.291,0,0,1-.081.165ZM132.393,76.4c-.242-.992-.484-2.149-.646-3.306a1.07,1.07,0,0,0-.081-.5l-.081-.5v-.165a1.586,1.586,0,0,0,.161-.661V71.2a3.654,3.654,0,0,1-.081-.413l-.081-.413a4.838,4.838,0,0,1-.081-1.157V68.057a2.8,2.8,0,0,1,.484.083c.081,0,.242.165.484.413v.5c0,.165-.081.331-.081.5v.992c0,.248-.081.5-.081.744v.331l.081.578v.578a2.375,2.375,0,0,0,.323,1.24l.081.165v.165l.081.826.081.826a1.648,1.648,0,0,0,.081.578l.081.331v.331C132.554,76.9,132.393,76.734,132.393,76.4Zm.888-12.231h-.323v-.331l.484-.992.484-.992A8.287,8.287,0,0,1,133.281,64.173Zm4.843,19.09h-.565l-.565.083h-1.211c-.081-.083-.161-.248-.323-.413l-.161-.248c-.081-.083-.081-.165-.161-.248.242,0,.484-.083.727-.083l-.323-.165-.242-.165c-.242-.165-.4-.248-.484-.413a2.314,2.314,0,0,1-.727-1.074l.323.165a10.807,10.807,0,0,0,2.341.909,8.741,8.741,0,0,0,1.534.165,4.5,4.5,0,0,0,1.049-.083,5.436,5.436,0,0,0,1.049-.165l.484-.083.484-.165.4-.083A5.214,5.214,0,0,1,138.124,83.263Zm4.117-6.942-.161.413-.161.413a5.226,5.226,0,0,1-.242.826,5.3,5.3,0,0,1-1.049,1.818,2.854,2.854,0,0,1-1.937.744H138.2l-.565-.083a2.162,2.162,0,0,1-1.857-1.157,4.922,4.922,0,0,0-.323-.661l-.161-.413-.081-.413c-.081-.331-.242-.744-.323-1.157l-.081-.578-.161-.661v-.248l-.323-3.388c0-.248-.081-.5-.081-.909l-.081-.909v-.331c.323.248.888.5,1.453.909l.727.413.727.413,1.453.826,1.453.826,1.534.826.727.413.727.413A8.067,8.067,0,0,0,142.241,76.321Zm2.5-5.867.081-.578.081-.578v-.413a.76.76,0,0,0-.242-.413l-.888-.165-.888-.165-1.292-.248a5.932,5.932,0,0,1-1.292-.331,10.494,10.494,0,0,1-2.422-.826l-2.1-1.157-2.1-1.074a12.927,12.927,0,0,1,1.049-3.306,7.882,7.882,0,0,1,1.857-2.81l.484-.083h.484a5.659,5.659,0,0,1,1.049-.083v-.165h.081c.161,0,.242.083.4.165.081,0,.081.083.161.165l.161.165c.807.661,1.372,1.24,1.937,1.735a7.482,7.482,0,0,1,1.614,2.81c0,.083.081.165.081.331v.165l.081.165.242.744.161.413.081.413a1.739,1.739,0,0,0,.646.083,1.6,1.6,0,0,0,1.049-.331l.242-.661.242-.661a3.389,3.389,0,0,1,.888,2.231,4.114,4.114,0,0,1-.081.992,10.164,10.164,0,0,1-1.776,3.471Z" transform="translate(22.351 -46.901)"/>
              <path id="Path_293" data-name="Path 293" class="cls-2" d="M181.149,65.922a.607.607,0,0,0-.565.331,1.468,1.468,0,0,0-.4.661l-.4.992-.4.992c-.323.826-.646,1.488-.807,1.9s-.4.826-.646,1.4l-.646,1.4v-.165a2.339,2.339,0,0,1,.081-.744l.161-1.157.161-1.24.161-1.24c0-.248.081-.5.081-.909l.081-.909.081-1.4.081-.578.081-.578c0-.413.081-.826.081-1.074v-1.24l-.081-.578v-.744l-.081-.165-.242-.826-.242-.826-.161-.661-.242-.744-.081-.083-.081-.083-.081-.083a6.062,6.062,0,0,0-.4.5,7.4,7.4,0,0,0-.161,1.322l-.242.5-.242.5c-.081-.165-.081-.413-.161-.661l-.161-.661a4.414,4.414,0,0,0-.646-1.24l-.4.083-.4.083v.578a1.39,1.39,0,0,1-.484.083,2.5,2.5,0,0,0-.4,1.157v.083l.081.661.081.661.081,1.24.081,1.24v.165l.081.5.081.5a5.2,5.2,0,0,1,.081,1.074V68.98a4.279,4.279,0,0,1-.161,1.074l-.081.331v.331a8.819,8.819,0,0,1-.323,2.314l-.081.413-.081.413a6.634,6.634,0,0,1-.323.744,4.784,4.784,0,0,0-.565,1.818,26.567,26.567,0,0,1-1.049,4.215c0,.083-.081.083-.081.165l-.081.083-.081.083-.161-.248-.161-.248a1.814,1.814,0,0,0-.242-.413,18.433,18.433,0,0,1-.888-2.231l-.888-2.4a20.468,20.468,0,0,1-.727-2.479,2.141,2.141,0,0,0-.161-.578l-.081-.331-.081-.331h-.4a3.232,3.232,0,0,0-.565-.165.841.841,0,0,1-.4-.5c-.081-.331-.242-.744-.4-1.24l-.161-.578-.161-.578a1.194,1.194,0,0,0-.161-.5l-.081-.5a2.794,2.794,0,0,0-.4-.992,2.141,2.141,0,0,1-.161-.578.631.631,0,0,1,.081-.413L164.6,65.1l-.161-.5a7.815,7.815,0,0,1-.323-1.074l-.081-.578-.161-.578a8.786,8.786,0,0,1-.161-1.24,2.195,2.195,0,0,0-.242-.909c-.081.083-.161.165-.161.248l-.081.083-.081.083-.161.165c0-.578.081-1.157.081-1.818v-.826l.081-.826c-.081,0-.161-.083-.242-.165l-.081-.083L162.743,57V55.923a4.466,4.466,0,0,1,.081-1.074c0-.248.081-.578.081-.992l.081-.5.081-.578h-.484a.593.593,0,0,1-.4-.083l-.081.165-.081.165a.506.506,0,0,0-.081.331l-.081.331-.081.331c0,.248-.081.5-.081.661,0,.5-.081,1.157-.081,1.983l-.081,1.983c0,.331-.081.826-.081,1.4V60.8a1.875,1.875,0,0,1-.081.744l-.242-.5-.081-.5-.081-.5c-.081-.413-.081-.744-.161-.992a4.115,4.115,0,0,1-.081-.992A4.943,4.943,0,0,1,160.887,57v-.578c-.081,0-.161-.083-.323-.083l-.161-.083-.161-.083a1.129,1.129,0,0,0-.484-.165H159.6l-.081.083-.081.083a1.782,1.782,0,0,0-.646,1.4v.165c0,.331.081.744.081,1.157v1.074a.291.291,0,0,0,.081.165v.083l.081.083a.506.506,0,0,1,.081.331l.161.744.081.744.081.661c.081.248.081.5.161.578l.646,2.562.646,2.562c.081.413.161.909.323,1.488l.323,1.488a.259.259,0,0,0,.081.165l.081.083v.083c0,.083,0,.165-.081.165a7.037,7.037,0,0,1-.565-1.57l-.242-.744-.242-.744-.161-.744-.161-.744c-.161-.661-.323-1.157-.4-1.488a24.968,24.968,0,0,1-1.13-4.711v-.826l-.081-.083-.081-.083c0-.083-.081-.083-.081-.165-.081-.331-.081-.744-.161-1.157a1.758,1.758,0,0,0-.323-.909l-.081.5v.165a7.3,7.3,0,0,0,.081,1.24l.081.744c0,.248.081.5.081.661l.081.826.081.826.081.578.081.578.081-.083h.081l.565,2.066c.242.826.4,1.488.565,2.066a39.741,39.741,0,0,0,1.292,4.049,5.744,5.744,0,0,0,.484,1.074l.242.5.242.5.484,1.24.484,1.24c.4.992.807,1.818,1.13,2.479a13.739,13.739,0,0,0,1.211,2.066,4.75,4.75,0,0,0,.646.826l.323.413.323.413.4.578c.161.248.323.413.4.578a5.149,5.149,0,0,0,1.049.909l.161.165.081.083.081.083.161.165.242.165.484.248a1.147,1.147,0,0,0,.565.165l.323.083.323.083a1,1,0,0,0,.484.083,1.345,1.345,0,0,0,.565-.083,1.6,1.6,0,0,0,.727-.744l.161-.331.161-.331a1.78,1.78,0,0,1,.484-.578.291.291,0,0,0,.081-.165l.081-.083.081-.083a8.045,8.045,0,0,1,.888-1.157l.161.331.161.331a3.129,3.129,0,0,0,.4.5c.081.083.081.165.161.331l.161.331a1.78,1.78,0,0,0,.484.578v-.909a3.526,3.526,0,0,0,.242-1.488v-.331a.917.917,0,0,0-.081-.413v-.165l-.081-.165v-.744l.565-.578.565-.578a12.933,12.933,0,0,1,1.049-1.074,3.616,3.616,0,0,0,.807-1.24,17.09,17.09,0,0,0,.727-2.149,22,22,0,0,0,.646-2.892,11.879,11.879,0,0,1,.161-1.488l.161-1.488v-.661l.081-.578q.121-.744.242-1.24c0-.165.081-.248.081-.413a1.194,1.194,0,0,0-.161-.5C181.229,66.005,181.229,65.922,181.149,65.922ZM165.084,80.137a36.92,36.92,0,0,1-2.422-5.289V74.6a4.64,4.64,0,0,1,.807,1.24,4.924,4.924,0,0,0,.323.661l.323.661c.242.5.484.992.727,1.57l.4.744.484.744.484.826.484.909A5.043,5.043,0,0,1,165.084,80.137Zm7.1,2.892h-.323a1.172,1.172,0,0,1-.565-.083l-.4.578-.081-.083.081-.165v-.248h-.323a.477.477,0,0,1-.323-.083.291.291,0,0,1-.081-.165l-.081-.083-.081-.083h.888a1.873,1.873,0,0,0,1.372-.5v.909Zm8.557-13.553-.081,1.322a5.114,5.114,0,0,1-.161,1.24,18.017,18.017,0,0,1-.484,2.562l-.242.826a3.9,3.9,0,0,1-.242.744,6.387,6.387,0,0,1-.807,1.488c-.161.165-.323.413-.565.661l-.323.331-.323.331-.484.5-.484.413-.081.083h-.081l-.081.083v-.331l-.081-.331c0-.248-.081-.5-.081-.661v-.413a2.606,2.606,0,0,1,.081-.826,5.221,5.221,0,0,0,.242-.826l.081-.413.081-.413a13.586,13.586,0,0,1,.484-1.4c.323-.661.646-1.488,1.211-2.562l1.13-2.562a5.745,5.745,0,0,1,.484-1.074l.242-.5.242-.578a1.6,1.6,0,0,1,.727-.744A21.611,21.611,0,0,0,180.745,69.476Z" transform="translate(16.299 -46.502)"/>
              <path id="Path_294" data-name="Path 294" class="cls-2" d="M222.127,82.056c-.727-.413-1.372-.744-1.857-.992h0a3.13,3.13,0,0,1-.727-.331l-.081-.083c-.081,0-.081.083-.161.083l-1.211.083c-.484,0-.888.083-1.211.083h-.807l-.4-.083h-.4l-2.422-.083-2.422-.083a2.961,2.961,0,0,1-.807-.083h-.807c0-.083.081-.165.161-.248l.081-.083.081-.083a.616.616,0,0,0,.161-.5l-.161-.248-.161-.248a.579.579,0,0,0-.323-.413c-.081,0-.161-.083-.323-.083h-.161l-.727.083-.727.083c-.323.083-.726.083-1.211.165l-.565.083c-.242,0-.484.083-.646.083a1.345,1.345,0,0,1-.4-.165l-.242-.083-.242-.083a1.585,1.585,0,0,1-.888-.5,4.277,4.277,0,0,0-.161-.744l-.161-.744a8.426,8.426,0,0,1-.161-1.322v-.165h.323c.161,0,.242,0,.323.083a1,1,0,0,0,.484.083,1.108,1.108,0,0,0,.888-.5h.565a2.433,2.433,0,0,0,.807-.083,6.6,6.6,0,0,0,2.422-1.157,1.872,1.872,0,0,0,.565-1.4c-.484,0-.888.083-1.211.083l.484-.578.484-.5.969-.992.727-.744c-.565.331-1.211.661-1.857.992a27.1,27.1,0,0,0-2.18,2.479.176.176,0,0,1-.161.165l-.242.331-2.1-2.149v.165h0v.083h-.081a2.252,2.252,0,0,1-.727-.992h0v-.083h-.081l-.565-.578-.565-.578a2.154,2.154,0,0,1-.726-1.4c-.161-.826-.242-1.488-.4-1.983-.161-.578-.323-1.074-.4-1.4a22.711,22.711,0,0,1-.484-4.38v-.331a.433.433,0,0,0-.161-.331h-.565v-.248a.76.76,0,0,1,.081-.413l.727.413.727.413c.081,0,.161.083.323.165l.323.248.323.248.323.248,1.211.909a7.916,7.916,0,0,1,1.13.909,13.1,13.1,0,0,0,3.633,2.066,3.426,3.426,0,0,0,.4.083h.484c.161-.165.4-.5.726-.826a.416.416,0,0,1,.323-.165l.161-.083.161-.083a1.271,1.271,0,0,0,.646-.413,2.731,2.731,0,0,0-1.534-.578h-.081a1.39,1.39,0,0,1-.484-.083l-.242-.083-.242-.083a.594.594,0,0,1,.4-.083l.727.083c.323,0,.484.083.646.083h1.937a17.144,17.144,0,0,0,3.31-.413,5.023,5.023,0,0,0,1.776-.661,10.4,10.4,0,0,0,2.422-2.562l.081-.331a3.2,3.2,0,0,0-1.292.578,1.8,1.8,0,0,1-1.211.413h-.242l-.161.083-.646.165-.646.165a13.209,13.209,0,0,1-3.39.578c-.565,0-1.13.083-1.614.083a19.539,19.539,0,0,1-2.341-.165,18.537,18.537,0,0,1-3.955-1.074,5.767,5.767,0,0,1-2.018-1.322A19.52,19.52,0,0,0,199.6,56.19a3.992,3.992,0,0,0-2.26-1.074h-.484c-.081,0-.081-.083-.161-.083l-.081-.083-.081-.083c-.081-.165-.161-.165-.323-.165h-.081a1.646,1.646,0,0,0-.081.661v.413c0,.165.081.331.081.5l.081.248.081.248a3.122,3.122,0,0,0-.484.165l-.081-.083-.081-.083a.259.259,0,0,1-.081-.165l-.323-.909-.4-.992a9.031,9.031,0,0,0-2.18-3.471,2.02,2.02,0,0,0-.969-.578c-.081.083-.242.083-.4.165l-.161.083-.161.083c-.242-.165-.484-.413-.727-.578l-.4-.331-.323-.331a1.5,1.5,0,0,0,.323.744l.242.331a1.138,1.138,0,0,0,.242.331v.331a.291.291,0,0,1,.081.165l.081.165a1.394,1.394,0,0,1,.888.5l.323.331c.081.165.242.248.323.331a9.186,9.186,0,0,1,1.211,2.314,21.713,21.713,0,0,1-2.987-2.81A12.911,12.911,0,0,1,188.3,49c-.081,0-.081,0-.161.083H187.9v.331c0,.083.081.165.081.248a10.343,10.343,0,0,0,2.18,3.636,18.548,18.548,0,0,0,2.906,2.479,1.967,1.967,0,0,1,.727,1.074l.646,1.9c.323.826.484,1.488.646,1.983.323.909.646,2.149,1.13,3.636l.565,1.818a16.3,16.3,0,0,0,.565,1.818.259.259,0,0,0,.081.165v.248l-.323-.165-1.372-.909c-.565-.331-.969-.661-1.372-.909a1.9,1.9,0,0,0-1.13-.413c-.807-.165-1.534-.248-2.26-.413h-.081c-.081,0-.161,0-.161.083l.323.331.323.331a4.53,4.53,0,0,1,.565.744,5.349,5.349,0,0,0,1.534,1.4l.242.165.242.165a1.24,1.24,0,0,1,.484.331c.727.578,1.372,1.074,1.937,1.57a8.621,8.621,0,0,0,.888.744l.888.826a.813.813,0,0,1,.323.744v-.083l-.081.578v.578a10.747,10.747,0,0,1-.323,2.644,6.54,6.54,0,0,1-.727,2.066c-.081.083-.161.248-.323.413l-.161.165v.248a2.463,2.463,0,0,0,.161.744l.081.165.081.165a.917.917,0,0,1,.081.413h.161a1.581,1.581,0,0,0,.727-.165,1.6,1.6,0,0,1,.888-.248h.323l-.323.331a1.14,1.14,0,0,0-.242.331,2.911,2.911,0,0,0-.4.661l.081.083.081.083a10.392,10.392,0,0,0,1.211-.413l.161.5a1.415,1.415,0,0,1,.161.413,1.922,1.922,0,0,0,.727.661l1.534-.5,1.614-.5.323-.083.323-.083a1.542,1.542,0,0,1,.565-.083c.484,0,.969-.083,1.372-.083a13.091,13.091,0,0,1,1.937.165,26.088,26.088,0,0,0,3.068.661,11.649,11.649,0,0,0,1.7.083,6.786,6.786,0,0,0,1.292-.083,8.211,8.211,0,0,0,1.211-.165l.323-.083.323-.083a1.542,1.542,0,0,1,.565-.083h.4c.161,0,.242.083.4.083a3.212,3.212,0,0,0,1.534.331,3.842,3.842,0,0,0,.969-.083h.807l.484.083a5.632,5.632,0,0,1,.4-.578h.323c.161,0,.242-.083.242-.165ZM199.2,78.172l.081-.578.081-.578c.081-.5.081-.826.161-1.157a18.263,18.263,0,0,0,.4,2.066c-.081,0-.081.083-.161.083l-.161.083a.28.28,0,0,0-.161.083Zm.565,2.149h-.484c.242-.165.4-.331.484-.331h0c.081,0,.161.083.323.165A.32.32,0,0,1,199.766,80.321Z" transform="translate(10.516 -45.86)"/>
              <path id="Path_295" data-name="Path 295" class="cls-2" d="M206,75.2a1.482,1.482,0,0,0,.4.578V75.2C206.323,75.283,206.161,75.2,206,75.2Z" transform="translate(7.027 -50.408)"/>
            </g>
            <g id="icon" transform="translate(83.507 0)">
              <g id="Group_202" data-name="Group 202" transform="translate(0 26.815)">
                <g id="Group_201" data-name="Group 201" transform="translate(0 0)">
                  <path id="Path_385" data-name="Path 385" class="cls-2" d="M29.183,266.225,22.1,259.14a3.438,3.438,0,0,0-4.724,0l-15.75,15.75a5.369,5.369,0,0,0-.365.4,5.572,5.572,0,0,0,.77,7.842,5.488,5.488,0,0,0,3.458,1.227,5.889,5.889,0,0,0,4.15-1.722L22.1,270.218l.8.8a3.339,3.339,0,0,0,4.724,0l1.566-1.618h0A2.245,2.245,0,0,0,29.183,266.225Zm-3.106,3.145h0a1.114,1.114,0,0,1-1.579,0l-1.618-1.618a1.11,1.11,0,0,0-1.566,0L8.057,281.009a3.479,3.479,0,0,1-4.606.391c-.078-.065-.17-.144-.248-.222a3.339,3.339,0,0,1,0-4.724l15.75-15.75a1.125,1.125,0,0,1,.8-.326,1.074,1.074,0,0,1,.822.339l7.1,7.086Z" transform="translate(0.008 -258.2)"/>
                </g>
              </g>
              <g id="Group_204" data-name="Group 204" transform="translate(4.464 43.976)">
                <g id="Group_203" data-name="Group 203" transform="translate(0 0)">
                  <path id="Path_386" data-name="Path 386" class="cls-2" d="M38.454,390.1a1.1,1.1,0,0,0-1.566-.117l-2.362,2.362a1.136,1.136,0,0,0,1.592,1.618l2.349-2.4A1.159,1.159,0,0,0,38.454,390.1Z" transform="translate(-34.2 -389.714)"/>
                </g>
              </g>
              <g id="Group_206" data-name="Group 206" transform="translate(10.021 40.778)">
                <g id="Group_205" data-name="Group 205">
                  <path id="Path_387" data-name="Path 387" class="cls-2" d="M78.7,365.539l-.17-.144-.2-.1-.2-.065a1.6,1.6,0,0,0-.248-.026,1.119,1.119,0,0,0-1.1,1.135,1.139,1.139,0,0,0,.261.783,1.39,1.39,0,0,0,.365.248,1.222,1.222,0,0,0,.483.091v-.026a1.108,1.108,0,0,0,1.109-1.109A1.033,1.033,0,0,0,78.7,365.539Z" transform="translate(-76.791 -365.2)"/>
                </g>
              </g>
              <g id="Group_208" data-name="Group 208" transform="translate(19.561 0)">
                <g id="Group_207" data-name="Group 207">
                  <path id="Path_388" data-name="Path 388" class="cls-2" d="M195.754,70.212,179.221,53.679a3.339,3.339,0,0,0-4.724,0L150.879,77.31a3.339,3.339,0,0,0,0,4.724L167.4,98.567a4.442,4.442,0,0,0,6.29,0l22.053-22.053h0A4.454,4.454,0,0,0,195.754,70.212Zm-1.566,4.737L172.135,97h0a2.213,2.213,0,0,1-3.145,0L152.445,80.442a1.11,1.11,0,0,1,0-1.566l23.618-23.618a1.125,1.125,0,0,1,.8-.326,1.149,1.149,0,0,1,.8.326L194.188,71.79h0A2.253,2.253,0,0,1,194.188,74.948Z" transform="translate(-149.9 -52.7)"/>
                </g>
              </g>
              <g id="Group_210" data-name="Group 210" transform="translate(34.372 14.93)">
                <g id="Group_209" data-name="Group 209">
                  <path id="Path_389" data-name="Path 389" class="cls-2" d="M292.029,167.5a1.1,1.1,0,0,0-1.566-.117L263.726,194.11a1.116,1.116,0,0,0,.8,1.905,1.108,1.108,0,0,0,.783-.339l26.724-26.724A1.125,1.125,0,0,0,292.029,167.5Z" transform="translate(-263.4 -167.114)"/>
                </g>
              </g>
              <g id="Group_212" data-name="Group 212" transform="translate(43.167 6.303)">
                <g id="Group_211" data-name="Group 211" transform="translate(0 0)">
                  <path id="Path_390" data-name="Path 390" class="cls-2" d="M334.141,101a3.34,3.34,0,1,0,3.34,3.34A3.347,3.347,0,0,0,334.141,101Zm.026,4.463a1.116,1.116,0,1,1-.013-2.231v-.013a1.085,1.085,0,0,1,.8.339,1.116,1.116,0,0,1-.783,1.905Z" transform="translate(-330.8 -101)"/>
                </g>
              </g>
            </g>
          </g>
        </g>
      </g>
    </g>
  </g>
</svg>
