<svg xmlns="http://www.w3.org/2000/svg" viewBox="726.796 -261.021 342.491 155.64">
  <defs>
    <style>
      .cls-1 {
        fill: none;
        stroke: #fff;
        stroke-width: 2px;
      }

      .cls-2, .cls-3 {
        fill: #fff;
      }

      .cls-2 {
        opacity: 0.8;
      }
    </style>
  </defs>
  <g id="Group_749" data-name="Group 749" transform="translate(726.796 -261.021)">
    <g id="Group_675" data-name="Group 675">
      <g id="Sala-Francis--Microcopy">
        <path id="Path_340" data-name="Path 340" class="cls-1" d="M1342.013,2115.5h36.047" transform="translate(-1184.212 -1960.859)"/>
        <g id="Group_126" data-name="Group 126" transform="translate(0 73.592)">
          <g id="Group_168" data-name="Group 168" transform="translate(105.944 0)">
            <path id="Path_264" data-name="Path 264" class="cls-2" d="M6.408,12.409A6.031,6.031,0,0,0,8.972,11.9a6.165,6.165,0,0,0,2.051-1.333,5.946,5.946,0,0,0,1.333-2,6.3,6.3,0,0,0,.461-2.41V6.1a6.118,6.118,0,0,0-.461-2.41,5.735,5.735,0,0,0-1.333-1.948,6.82,6.82,0,0,0-2-1.333A6.923,6.923,0,0,0,6.46-.1,6.031,6.031,0,0,0,3.9.413,7.484,7.484,0,0,0,1.794,1.8,7.3,7.3,0,0,0,.461,3.745,6.564,6.564,0,0,0,0,6.206v.051a6.118,6.118,0,0,0,.461,2.41,5.735,5.735,0,0,0,1.333,1.948,6.82,6.82,0,0,0,2,1.333A7.385,7.385,0,0,0,6.408,12.409ZM3.025,7.641a4.515,4.515,0,0,1-.256-1.487V6.1a4.209,4.209,0,0,1,.256-1.435,3.043,3.043,0,0,1,.718-1.179,4.845,4.845,0,0,1,1.179-.82,3.506,3.506,0,0,1,1.487-.308A3.678,3.678,0,0,1,7.9,2.668a4.735,4.735,0,0,1,1.128.872,4.992,4.992,0,0,1,.769,1.23,4.515,4.515,0,0,1,.256,1.487v.051a4.209,4.209,0,0,1-.256,1.435,3.043,3.043,0,0,1-.718,1.179,3.545,3.545,0,0,1-1.128.82,3.506,3.506,0,0,1-1.487.308,3.506,3.506,0,0,1-1.487-.308,5.416,5.416,0,0,1-1.179-.872A4.992,4.992,0,0,1,3.025,7.641Z" transform="translate(0 0.1)"/>
            <path id="Path_265" data-name="Path 265" class="cls-2" d="M45.75,5.527,42.571.4H39.7V12.448h2.615V4.655L45.7,9.731h.051L49.133,4.6v7.844h2.615V.4H48.877Z" transform="translate(-19.347 -0.144)"/>
            <rect id="Rectangle_58" data-name="Rectangle 58" class="cls-2" width="2.999" height="12.048" transform="translate(35.426 0.256)"/>
            <path id="Path_266" data-name="Path 266" class="cls-2" d="M85.06,9.792a2.254,2.254,0,0,1-1.282.308,4.662,4.662,0,0,1-1.9-.41,7.767,7.767,0,0,1-1.692-1.077L78.6,10.51a6.847,6.847,0,0,0,2.41,1.435,8.178,8.178,0,0,0,2.717.461,6.592,6.592,0,0,0,1.794-.256,3.944,3.944,0,0,0,1.384-.718,3.5,3.5,0,0,0,.923-1.179,3.822,3.822,0,0,0,.308-1.589V8.613a3.914,3.914,0,0,0-.256-1.384,2.678,2.678,0,0,0-.718-.974,4.581,4.581,0,0,0-1.23-.718c-.461-.205-1.025-.359-1.641-.564-.513-.154-.923-.256-1.282-.359a5.288,5.288,0,0,1-.82-.256,1.049,1.049,0,0,1-.41-.41,1.517,1.517,0,0,1-.1-.513h0a.974.974,0,0,1,.41-.769,1.9,1.9,0,0,1,1.179-.308,4.114,4.114,0,0,1,1.538.308,9.934,9.934,0,0,1,1.589.872l1.384-2A6.168,6.168,0,0,0,85.726.41,7.277,7.277,0,0,0,83.265,0a5.854,5.854,0,0,0-1.692.256,3.7,3.7,0,0,0-1.333.718A3.707,3.707,0,0,0,79.369,2.1a3.506,3.506,0,0,0-.308,1.487V3.64a3.2,3.2,0,0,0,.308,1.487,3.155,3.155,0,0,0,.82,1.025,4.317,4.317,0,0,0,1.282.999,12.384,12.384,0,0,0,1.641.513,9.42,9.42,0,0,1,1.23.359,1.873,1.873,0,0,1,.718.359,1.184,1.184,0,0,1,.359.359,1.5,1.5,0,0,1,.1.461v.051A.95.95,0,0,1,85.06,9.792Z" transform="translate(-38.304 0.051)"/>
            <path id="Path_267" data-name="Path 267" class="cls-2" d="M100,2.861h3.691v9.587h2.615V2.861H110V.4H100Z" transform="translate(-48.733 -0.144)"/>
            <path id="Path_268" data-name="Path 268" class="cls-2" d="M132.626,10.09h-6.511V7.577h5.691V5.219h-5.691V2.758h6.46V.4H123.5V12.448h9.126Z" transform="translate(-60.185 -0.144)"/>
            <path id="Path_269" data-name="Path 269" class="cls-2" d="M148.999,8.6h2.1l2.563,3.845h3.127l-2.922-4.306a4.1,4.1,0,0,0,1.846-1.333A3.956,3.956,0,0,0,156.1,4.4h0a3.924,3.924,0,0,0-1.025-2.768A4.788,4.788,0,0,0,151.537.4H146V12.448h2.999Zm0-5.793h2.615a2.615,2.615,0,0,1,1.538.41,1.592,1.592,0,0,1,.564,1.282v.051a1.52,1.52,0,0,1-.513,1.23,2.243,2.243,0,0,1-1.487.461h-2.999V2.81Z" transform="translate(-71.15 -0.144)"/>
            <rect id="Rectangle_59" data-name="Rectangle 59" class="cls-2" width="2.999" height="12.048" transform="translate(87.411 0.256)"/>
            <path id="Path_270" data-name="Path 270" class="cls-2" d="M182.294,10.664a6.82,6.82,0,0,0,2,1.333,6.923,6.923,0,0,0,2.563.513A6.031,6.031,0,0,0,189.42,12a6.164,6.164,0,0,0,2.051-1.333,5.946,5.946,0,0,0,1.333-2,6.3,6.3,0,0,0,.461-2.41V6.2a6.118,6.118,0,0,0-.461-2.41,5.735,5.735,0,0,0-1.333-1.948,6.82,6.82,0,0,0-2-1.333A6.923,6.923,0,0,0,186.908,0a6.031,6.031,0,0,0-2.563.513,6.165,6.165,0,0,0-2.051,1.333,5.947,5.947,0,0,0-1.333,2,6.3,6.3,0,0,0-.461,2.41v.051a6.118,6.118,0,0,0,.461,2.41A7.3,7.3,0,0,0,182.294,10.664Zm.974-4.46a4.209,4.209,0,0,1,.256-1.435,3.043,3.043,0,0,1,.718-1.179,3.545,3.545,0,0,1,1.128-.82,3.506,3.506,0,0,1,1.487-.308,3.677,3.677,0,0,1,1.487.308,3.756,3.756,0,0,1,1.179.82,4.992,4.992,0,0,1,.769,1.23,4.516,4.516,0,0,1,.256,1.487v.051a4.209,4.209,0,0,1-.256,1.435,3.043,3.043,0,0,1-.718,1.179,3.545,3.545,0,0,1-1.128.82,3.747,3.747,0,0,1-2.973,0,3.756,3.756,0,0,1-1.179-.82,4.991,4.991,0,0,1-.769-1.23,5.09,5.09,0,0,1-.256-1.538Z" transform="translate(-87.962 0.051)"/>
            <path id="Path_271" data-name="Path 271" class="cls-2" d="M218.036,8.664a3.915,3.915,0,0,0-.256-1.384,2.678,2.678,0,0,0-.718-.974,4.581,4.581,0,0,0-1.23-.718c-.461-.205-1.025-.359-1.641-.564-.513-.154-.923-.256-1.282-.359a4.676,4.676,0,0,1-.82-.308,1.049,1.049,0,0,1-.41-.41,1.516,1.516,0,0,1-.1-.513h0a.974.974,0,0,1,.41-.769,1.9,1.9,0,0,1,1.179-.308,4.114,4.114,0,0,1,1.538.308,9.935,9.935,0,0,1,1.589.872l1.384-2A6.168,6.168,0,0,0,215.626.41,7.277,7.277,0,0,0,213.165,0a5.854,5.854,0,0,0-1.692.256,3.7,3.7,0,0,0-1.333.718,3.707,3.707,0,0,0-.872,1.128,3.506,3.506,0,0,0-.308,1.487V3.64a3.2,3.2,0,0,0,.308,1.487,3.155,3.155,0,0,0,.82,1.025,4.318,4.318,0,0,0,1.282.999,12.383,12.383,0,0,0,1.641.513,9.423,9.423,0,0,1,1.23.359,1.872,1.872,0,0,1,.718.359,1.184,1.184,0,0,1,.359.359,1.5,1.5,0,0,1,.1.461v.051a.924.924,0,0,1-.461.82,2.254,2.254,0,0,1-1.282.308,4.662,4.662,0,0,1-1.9-.41,7.768,7.768,0,0,1-1.692-1.077l-1.589,1.9a6.847,6.847,0,0,0,2.41,1.435,8.178,8.178,0,0,0,2.717.461,6.591,6.591,0,0,0,1.794-.256,3.943,3.943,0,0,0,1.384-.718,3.5,3.5,0,0,0,.923-1.179,3.277,3.277,0,0,0,.308-1.538Z" transform="translate(-101.608 0.051)"/>
            <path id="Path_272" data-name="Path 272" class="cls-2" d="M232.394,10.664a6.82,6.82,0,0,0,2,1.333,6.923,6.923,0,0,0,2.563.513A6.031,6.031,0,0,0,239.52,12a6.165,6.165,0,0,0,2.051-1.333,5.947,5.947,0,0,0,1.333-2,6.3,6.3,0,0,0,.461-2.41V6.2a6.118,6.118,0,0,0-.461-2.41,5.735,5.735,0,0,0-1.333-1.948,6.82,6.82,0,0,0-2-1.333A6.923,6.923,0,0,0,237.008,0a6.031,6.031,0,0,0-2.563.513,6.164,6.164,0,0,0-2.051,1.333,5.947,5.947,0,0,0-1.333,2,6.3,6.3,0,0,0-.461,2.41v.051a6.118,6.118,0,0,0,.461,2.41A7.3,7.3,0,0,0,232.394,10.664Zm.974-4.46a4.209,4.209,0,0,1,.256-1.435,3.042,3.042,0,0,1,.718-1.179,3.545,3.545,0,0,1,1.128-.82,3.506,3.506,0,0,1,1.487-.308,3.677,3.677,0,0,1,1.487.308,3.756,3.756,0,0,1,1.179.82,4.993,4.993,0,0,1,.769,1.23,4.515,4.515,0,0,1,.256,1.487v.051a4.209,4.209,0,0,1-.256,1.435,3.043,3.043,0,0,1-.718,1.179,3.545,3.545,0,0,1-1.128.82,3.747,3.747,0,0,1-2.974,0,3.756,3.756,0,0,1-1.179-.82,4.991,4.991,0,0,1-.769-1.23,5.09,5.09,0,0,1-.256-1.538Z" transform="translate(-112.378 0.051)"/>
          </g>
          <g id="Group_169" data-name="Group 169" transform="translate(0 20.815)">
            <path id="Path_273" data-name="Path 273" class="cls-3" d="M30.624,65.273c-1.692-.308-1.9-.564-1.9-4V47.534c0-3.435.205-3.743,1.9-4l.718-.1a1,1,0,0,0,0-1.282c-1.692.051-3.384.1-5.229.1-1.794,0-3.589-.051-5.588-.1a1,1,0,0,0,0,1.282l.974.154c1.692.256,1.9.564,1.9,4v4.2c0,1.077,0,1.128-1.538,1.128h-7.69c-1.538,0-1.538-.051-1.538-1.128V47.483c0-3.435.205-3.794,1.794-4l.769-.1a1,1,0,0,0,0-1.282c-1.641.051-3.486.1-5.127.1-1.794,0-3.691-.051-5.486-.1a1,1,0,0,0,0,1.282l.872.1c1.692.205,1.9.615,1.9,4v13.74c0,3.435-.205,3.794-1.9,4l-.872.1a1,1,0,0,0,0,1.282c1.9-.051,3.743-.1,5.486-.1,1.641,0,3.486.051,5.588.1a1,1,0,0,0,0-1.282l-1.179-.154c-1.641-.205-1.9-.564-1.9-4V55.942c0-1.025.051-1.077,1.538-1.077h7.69c1.538,0,1.538.051,1.538,1.077v5.332c0,3.435-.205,3.794-1.9,4l-.82.1a1,1,0,0,0,0,1.282c1.794-.051,3.589-.1,5.434-.1,1.692,0,3.486.051,5.332.1a1,1,0,0,0,0-1.282Z" transform="translate(-4.35 -41.28)"/>
            <path id="Path_274" data-name="Path 274" class="cls-3" d="M81.476,41.2A12.72,12.72,0,0,0,68.3,54.171c0,7.69,5.383,12.612,12.817,12.612,7.946,0,13.33-4.819,13.33-12.868C94.446,46.378,89.166,41.2,81.476,41.2Zm.359,23.839c-6,0-7.588-7.229-7.588-11.74,0-6.152,2.461-10.407,6.972-10.407,4.563,0,7.331,5.127,7.331,11.433C88.551,60.323,86.654,65.039,81.835,65.039Z" transform="translate(-35.515 -40.841)"/>
            <path id="Path_275" data-name="Path 275" class="cls-3" d="M148.865,40.5a1.224,1.224,0,0,0-.461.1c-.308.769-.872.82-3.332.82h-13.74c-2.82,0-2.922-.154-3.076-.769a.866.866,0,0,0-.513-.154.658.658,0,0,0-.513.205A45.088,45.088,0,0,1,126,46.96a1.026,1.026,0,0,0,1.384.308c1.128-2.717,1.9-4.153,4.563-4.153h2.307c.872,0,.872.205.872,1.077v16.3c0,3.435-.205,3.743-1.9,3.948l-1.641.205a1,1,0,0,0,0,1.282c2.563-.051,4.512-.1,6.255-.1,1.641,0,3.486.051,5.9.1a1.164,1.164,0,0,0,0-1.282l-1.487-.205c-1.641-.205-1.9-.513-1.9-3.948v-16.3c0-.974.1-1.077.974-1.077h2.2c2.768,0,3.281,1.743,3.9,4.1.205.308,1.179.205,1.384-.1a28.079,28.079,0,0,1,.564-6.357C149.378,40.654,149.122,40.5,148.865,40.5Z" transform="translate(-63.633 -40.5)"/>
            <path id="Path_276" data-name="Path 276" class="cls-3" d="M198.021,60.559c-2.051,4.153-3.281,4.306-6.511,4.306-2.717,0-3.384-.308-3.9-.974C187.152,63.276,187,62.1,187,60.4V56c0-1.128.051-1.128,1.025-1.128h2.563c1.9,0,2.358.308,2.717,2.051l.205.923c.256.308,1.179.308,1.384-.051-.051-1.179-.1-2.512-.1-3.9s.051-2.717.1-3.9a1.237,1.237,0,0,0-1.384-.051l-.205.923c-.359,1.794-.82,2.051-2.717,2.051h-2.563c-.974,0-1.025-.051-1.025-1.128V45.281c0-1.384,0-1.435,1.23-1.435H191.2a5.12,5.12,0,0,1,3.64,1.128,9.128,9.128,0,0,1,1.384,2.922c.359.308,1.23.256,1.384-.154-.205-2.461-.461-5.127-.461-5.742-.461.051-2.563.1-4.922.1h-7.844c-1.794,0-3.589-.051-5.332-.1-.359.205-.41,1.077-.051,1.282l.923.205c1.641.308,1.9.564,1.9,3.9V61.174c0,3.384-.205,3.64-1.9,3.9l-1.743.256a1,1,0,0,0,0,1.282c2.768-.051,4.563-.1,6.357-.1h4.819c3.025,0,6.562.051,8.51.1a21.232,21.232,0,0,0,1.538-5.9A.932.932,0,0,0,198.021,60.559Z" transform="translate(-88.95 -41.231)"/>
            <path id="Path_277" data-name="Path 277" class="cls-3" d="M246.656,60.5c-2.153,4.306-3.23,4.409-6.562,4.409-2.717,0-3.384-.308-3.845-.923s-.615-1.794-.615-3.486V47.534c0-3.435.205-3.743,1.9-4l.974-.154a1,1,0,0,0,0-1.282c-1.846.051-3.691.1-5.486.1s-3.64-.051-5.537-.1a.793.793,0,0,0-.051,1.282l1.077.154c1.641.205,1.9.564,1.9,4v13.74c0,3.435-.205,3.743-1.9,3.948l-1.384.205c-.308.205-.205,1.077.1,1.282,2.307-.051,4.153-.1,5.844-.1h4.922c3.025,0,6.562.051,8.51.1a23.322,23.322,0,0,0,1.589-6C247.784,60.249,246.964,60.095,246.656,60.5Z" transform="translate(-112.823 -41.28)"/>
            <path id="Path_278" data-name="Path 278" class="cls-3" d="M307.932,43.587l1.025-.205a1,1,0,0,0,0-1.282c-2,.051-3.845.1-5.588.1-1.794,0-3.64-.051-5.588-.1a1,1,0,0,0,0,1.282l1.025.205c1.692.308,1.9.564,1.9,4V61.171c0,3.486-.205,3.743-1.9,4l-1.025.205a1,1,0,0,0,0,1.282c2-.051,3.845-.1,5.588-.1s3.537.051,5.537.1a1.079,1.079,0,0,0,.051-1.282l-1.025-.205c-1.692-.308-1.9-.564-1.9-4V47.586C305.983,44.151,306.24,43.894,307.932,43.587Z" transform="translate(-147.234 -41.28)"/>
            <path id="Path_279" data-name="Path 279" class="cls-3" d="M359.659,43.538l1.077-.205c.308-.359.308-1.077-.1-1.282-1.333.051-3.025.1-4.255.1a31.65,31.65,0,0,1-3.64-.1,47.987,47.987,0,0,1-3.486,8.921l-1.9,4.05c-.974,2.153-1.589,3.332-2.051,4.2-.513-.923-1.846-3.23-2.153-4L340.69,50c-1.641-3.486-2.922-5.742-2.922-8-1.333.1-2.41.1-3.64.1-1.794,0-3.384-.051-4.665-.1-.41.1-.41.974-.1,1.282l.82.154c1.487.256,2.307.82,2.307,2.922,0,2-.051,4.973-.205,7.434-.205,3.486-.308,6.716-.513,8.51-.205,2.307-.461,2.512-2.307,2.82l-.667.1c-.308.205-.308,1.128.154,1.282,1.487-.051,2.871-.1,4.05-.1,1.384,0,2.973.051,4.358.1a1,1,0,0,0,.051-1.282l-1.435-.205c-1.487-.205-1.692-.718-1.692-2.563,0-2.2.051-5.9.051-8.305.051-1.9.051-3.537.205-5.947h.051c2.051,4.819,6.613,13.945,8.049,18.507a1.833,1.833,0,0,0,.974.205,1.014,1.014,0,0,0,.718-.256c2.461-6.255,5.383-12.407,8.1-18.3h.051v4.2l.051,9.587c0,2.256,0,2.717-1.692,2.922l-1.128.154c-.359.256-.308,1.128.1,1.282,1.794-.051,3.794-.1,5.486-.1,1.794,0,3.384.051,5.075.1.359-.154.359-.974.051-1.282l-1.179-.154c-1.435-.205-1.589-1.077-1.641-2.768-.205-4.665-.308-8.613-.308-16.252C357.4,44.256,358.172,43.794,359.659,43.538Z" transform="translate(-162.357 -41.231)"/>
            <path id="Path_280" data-name="Path 280" class="cls-3" d="M416.23,43.074a18.322,18.322,0,0,0-6.767-.974c-3.23,0-6.1.154-8.51.308-.41.256-.41,1.077-.051,1.23l1.128.154c1.538.205,1.641.615,1.641,4.358V61.223c0,3.435-.205,3.691-1.9,4l-1.025.205c-.41.205-.308,1.025.051,1.23,2-.051,3.742-.1,5.537-.1s3.589.051,5.639.1c.41-.205.41-1.077,0-1.23l-1.179-.205c-1.641-.256-1.9-.564-1.9-4V45.689c0-1.487.051-1.9,1.435-1.9,3.332,0,4.717,2.974,4.717,5.691s-.615,4.922-3.691,5.844a.671.671,0,0,0,.1.974,8.691,8.691,0,0,0,1.179.051c1.948,0,8.049-.872,8.049-6.921A6.44,6.44,0,0,0,416.23,43.074Z" transform="translate(-197.396 -41.28)"/>
            <path id="Path_281" data-name="Path 281" class="cls-3" d="M466.621,60.559c-2.051,4.153-3.281,4.306-6.511,4.306-2.717,0-3.384-.308-3.9-.974-.461-.615-.615-1.794-.615-3.486V56c0-1.128.051-1.128,1.025-1.128h2.563c1.9,0,2.358.308,2.717,2.051l.205.923c.256.308,1.179.308,1.384-.051-.051-1.179-.1-2.512-.1-3.9s.051-2.717.1-3.9a1.237,1.237,0,0,0-1.384-.051l-.205.923c-.359,1.794-.82,2.051-2.717,2.051h-2.563c-.974,0-1.025-.051-1.025-1.128V45.281c0-1.384,0-1.435,1.23-1.435H459.8a5.12,5.12,0,0,1,3.64,1.128,9.128,9.128,0,0,1,1.384,2.922c.359.308,1.23.256,1.384-.154-.205-2.461-.461-5.127-.461-5.742-.461.051-2.563.1-4.922.1h-7.844c-1.794,0-3.589-.051-5.332-.1-.359.205-.41,1.077-.051,1.282l.923.205c1.641.308,1.9.564,1.9,3.9V61.174c0,3.384-.205,3.64-1.9,3.9l-1.743.256a1,1,0,0,0,0,1.282c2.768-.051,4.563-.1,6.357-.1h4.819c3.025,0,6.562.051,8.51.1a21.234,21.234,0,0,0,1.538-5.9A.932.932,0,0,0,466.621,60.559Z" transform="translate(-219.846 -41.231)"/>
            <path id="Path_282" data-name="Path 282" class="cls-3" d="M520.325,65.529a4.489,4.489,0,0,1-2.461-1.025c-1.794-1.538-3.281-4.306-5.742-9.228-.205-.41-.205-.615.205-.82,1.692-.872,3.9-2.256,3.9-5.537a6.17,6.17,0,0,0-3.23-5.486c-1.384-.872-4.1-1.333-7.229-1.333-3.486,0-6.408.154-9.177.308-.461.205-.461,1.128-.051,1.282l.974.154c1.538.205,1.641.615,1.641,4.306V61.223c0,3.384-.205,3.64-1.9,3.948l-.974.205a1,1,0,0,0,0,1.282c1.9-.051,3.537-.1,5.383-.1,1.794,0,3.486.051,5.434.1.256-.205.256-1.128,0-1.282l-.974-.205c-1.641-.308-1.9-.564-1.9-3.948V56.66c0-.718.051-.82,1.384-.82a1.858,1.858,0,0,1,1.948,1.282,54.5,54.5,0,0,0,2.871,5.742,7.545,7.545,0,0,0,7.177,3.9,9.244,9.244,0,0,0,2.922-.308A.677.677,0,0,0,520.325,65.529ZM509.3,53.276a3.536,3.536,0,0,1-2.82,1.025c-2.153,0-2.307-.1-2.307-1.384V45.74c0-1.794.051-1.9,1.589-1.9,2.871,0,4.819,2.153,4.819,5.486A5.316,5.316,0,0,1,509.3,53.276Z" transform="translate(-243.969 -41.28)"/>
            <path id="Path_283" data-name="Path 283" class="cls-3" d="M559.532,43.587l1.025-.205a1,1,0,0,0,0-1.282c-2,.051-3.845.1-5.588.1-1.794,0-3.64-.051-5.588-.1a1.006,1.006,0,0,0,0,1.282l1.025.205c1.692.308,1.9.564,1.9,4V61.171c0,3.486-.2,3.743-1.9,4l-1.025.205a1.006,1.006,0,0,0,0,1.282c2-.051,3.845-.1,5.588-.1s3.537.051,5.537.1a1.079,1.079,0,0,0,.051-1.282l-1.025-.205c-1.692-.308-1.9-.564-1.9-4V47.586C557.583,44.151,557.789,43.894,559.532,43.587Z" transform="translate(-269.846 -41.28)"/>
            <path id="Path_284" data-name="Path 284" class="cls-3" d="M600.843,64.732c-1.384-.205-1.692-1.077-2.461-3.281l-5.024-14.457c-.923-2.615-1.384-4-1.641-5.075-.154-.564-.359-.718-.872-.718a7.251,7.251,0,0,1-3.23,2.2c.1,1.077-.513,2.358-1.384,4.665l-3.384,9.023c-.974,2.999-1.692,4.409-2.307,5.9a2.542,2.542,0,0,1-2.256,1.846l-.974.1c-.256.308-.308,1.077.1,1.282,1.692,0,2.563-.1,3.794-.1,1.538.051,2.871.051,4.153.1.359-.205.308-1.025.051-1.282l-1.128-.205q-1.538-.308-1.538-.615A4.684,4.684,0,0,1,583,62.784l1.435-4.306c.205-.718.308-.718,1.23-.718h4.409c1.282,0,1.589.051,1.794.999l.974,3.179a14.977,14.977,0,0,1,.718,2.512c0,.205-.154.461-.974.615l-1.179.205a.854.854,0,0,0,.051,1.282c1.692-.051,3.127-.1,4.973-.1,1.9,0,3.9.051,5.691.1.308-.205.256-1.128.051-1.282Zm-10.869-8.869h-3.486c-.923,0-1.128-.1-.769-1.128l.923-2.768c.564-1.692,1.282-3.691,1.589-4.563.308.769.974,2.768,1.538,4.358l.974,2.974C591,55.709,590.794,55.862,589.974,55.862Z" transform="translate(-283.472 -40.841)"/>
            <path id="Path_285" data-name="Path 285" class="cls-3" d="M650.856,60.5c-2.153,4.306-3.23,4.409-6.562,4.409-2.717,0-3.384-.308-3.845-.923s-.615-1.794-.615-3.486V47.534c0-3.435.205-3.743,1.9-4l.974-.154a1,1,0,0,0,0-1.282c-1.846.051-3.691.1-5.486.1s-3.64-.051-5.537-.1a.793.793,0,0,0-.051,1.282l1.077.154c1.641.205,1.9.564,1.9,4v13.74c0,3.435-.205,3.743-1.9,3.948l-1.384.205c-.308.205-.205,1.077.1,1.282,2.307-.051,4.153-.1,5.844-.1h4.922c3.025,0,6.562.051,8.51.1a23.323,23.323,0,0,0,1.589-6C651.984,60.249,651.164,60.095,650.856,60.5Z" transform="translate(-309.8 -41.28)"/>
          </g>
        </g>
        <g id="hotel" transform="translate(154.789 0)">
          <g id="Group_171" data-name="Group 171" transform="translate(6.138 18.406)">
            <g id="Group_170" data-name="Group 170">
              <path id="Path_368" data-name="Path 368" class="cls-3" d="M82.251,230.4H77.479a.679.679,0,0,0-.679.679V237.9a.679.679,0,0,0,.679.679h4.771a.679.679,0,0,0,.679-.679v-6.817A.669.669,0,0,0,82.251,230.4Zm-.679,6.817h-3.4v-5.459h3.413l-.008,5.459Z" transform="translate(-76.8 -230.4)"/>
            </g>
          </g>
          <g id="Group_173" data-name="Group 173" transform="translate(17.734 18.406)">
            <g id="Group_172" data-name="Group 172">
              <path id="Path_369" data-name="Path 369" class="cls-3" d="M227.351,230.4h-4.771a.679.679,0,0,0-.679.679V237.9a.679.679,0,0,0,.679.679h4.771a.679.679,0,0,0,.679-.679v-6.817A.679.679,0,0,0,227.351,230.4Zm-.679,6.817h-3.413v-5.459h3.413Z" transform="translate(-221.9 -230.4)"/>
            </g>
          </g>
          <g id="Group_175" data-name="Group 175" transform="translate(17.734 29.315)">
            <g id="Group_174" data-name="Group 174">
              <path id="Path_370" data-name="Path 370" class="cls-3" d="M227.351,366.9h-4.771a.679.679,0,0,0-.679.679V374.4a.679.679,0,0,0,.679.679h4.771a.679.679,0,0,0,.679-.679v-6.817A.679.679,0,0,0,227.351,366.9Zm-.679,6.817h-3.413v-5.451h3.413Z" transform="translate(-221.9 -366.9)"/>
            </g>
          </g>
          <g id="Group_177" data-name="Group 177" transform="translate(28.644 18.406)">
            <g id="Group_176" data-name="Group 176">
              <path id="Path_371" data-name="Path 371" class="cls-3" d="M363.851,230.4h-4.771a.679.679,0,0,0-.679.679V237.9a.679.679,0,0,0,.679.679h4.771a.679.679,0,0,0,.679-.679v-6.817A.679.679,0,0,0,363.851,230.4Zm-.679,6.817h-3.413v-5.459h3.413Z" transform="translate(-358.4 -230.4)"/>
            </g>
          </g>
          <g id="Group_179" data-name="Group 179" transform="translate(6.138 29.315)">
            <g id="Group_178" data-name="Group 178">
              <path id="Path_372" data-name="Path 372" class="cls-3" d="M82.251,366.9H77.479a.679.679,0,0,0-.679.679V374.4a.679.679,0,0,0,.679.679h4.771a.679.679,0,0,0,.679-.679v-6.817A.669.669,0,0,0,82.251,366.9Zm-.679,6.817h-3.4v-5.451h3.413l-.008,5.451Z" transform="translate(-76.8 -366.9)"/>
            </g>
          </g>
          <g id="Group_181" data-name="Group 181" transform="translate(28.644 29.315)">
            <g id="Group_180" data-name="Group 180">
              <path id="Path_373" data-name="Path 373" class="cls-3" d="M363.851,366.9h-4.771a.679.679,0,0,0-.679.679V374.4a.679.679,0,0,0,.679.679h4.771a.679.679,0,0,0,.679-.679v-6.817A.679.679,0,0,0,363.851,366.9Zm-.679,6.817h-3.413v-5.451h3.413Z" transform="translate(-358.4 -366.9)"/>
            </g>
          </g>
          <g id="Group_183" data-name="Group 183" transform="translate(0 0)">
            <g id="Group_182" data-name="Group 182">
              <path id="Path_374" data-name="Path 374" class="cls-3" d="M38.186,39.645V16.46h.679a.679.679,0,0,0,.679-.679V12.368a.679.679,0,0,0-.679-.679h-.679V8.963a.679.679,0,0,0-.679-.679H36.14V.779A.679.679,0,0,0,35.461.1h-30a.679.679,0,0,0-.679.679v7.5H3.413a.679.679,0,0,0-.679.679v2.725H2.054a.679.679,0,0,0-.679.679V15.78a.679.679,0,0,0,.679.679h.679V39.645H0v1.367H40.919V39.645ZM6.138,1.459H34.773V8.276H6.138ZM4.092,9.643H36.827v2.046H4.092Zm32.727,30H4.092V16.46H36.819V39.645ZM3.413,15.093H2.733V13.047H38.186v2.046H3.413Z" transform="translate(0 -0.1)"/>
            </g>
          </g>
          <g id="Group_185" data-name="Group 185" transform="translate(15.081 2.334)">
            <g id="Group_184" data-name="Group 184">
              <path id="Path_375" data-name="Path 375" class="cls-3" d="M193.032,30.659a2.211,2.211,0,0,0-.456-.719,2.089,2.089,0,0,0-.711-.472,2.6,2.6,0,0,0-1.838,0,2.089,2.089,0,0,0-.711.472,1.975,1.975,0,0,0-.456.719,2.386,2.386,0,0,0-.16.9,2.553,2.553,0,0,0,.16.9,2.21,2.21,0,0,0,.456.719,2.089,2.089,0,0,0,.711.472,2.6,2.6,0,0,0,1.838,0,2.089,2.089,0,0,0,.711-.472,1.975,1.975,0,0,0,.456-.719,2.386,2.386,0,0,0,.16-.9A2.553,2.553,0,0,0,193.032,30.659Zm-.783,1.558a1.324,1.324,0,0,1-.28.488,1.161,1.161,0,0,1-.44.312,1.517,1.517,0,0,1-.583.1,1.49,1.49,0,0,1-.583-.1,1.161,1.161,0,0,1-.44-.312,1.392,1.392,0,0,1-.28-.488,2.286,2.286,0,0,1,0-1.311,1.429,1.429,0,0,1,.28-.5,1.227,1.227,0,0,1,.44-.312,1.517,1.517,0,0,1,.583-.1,1.49,1.49,0,0,1,.583.1,1.227,1.227,0,0,1,.44.312,1.36,1.36,0,0,1,.28.5,2.287,2.287,0,0,1,0,1.311Z" transform="translate(-188.7 -29.3)"/>
            </g>
          </g>
          <g id="Group_187" data-name="Group 187" transform="translate(10.677 2.374)">
            <g id="Group_186" data-name="Group 186">
              <path id="Path_376" data-name="Path 376" class="cls-3" d="M136.509,29.8v1.91h-2.078V29.8H133.6v4.444h.831V32.3h2.078v1.942h.831V29.8Z" transform="translate(-133.6 -29.8)"/>
            </g>
          </g>
          <g id="Group_189" data-name="Group 189" transform="translate(27.149 2.374)">
            <g id="Group_188" data-name="Group 188">
              <path id="Path_377" data-name="Path 377" class="cls-3" d="M340.523,33.556V29.8H339.7v4.444h2.6v-.687Z" transform="translate(-339.7 -29.8)"/>
            </g>
          </g>
          <g id="Group_191" data-name="Group 191" transform="translate(19.612 2.374)">
            <g id="Group_190" data-name="Group 190">
              <path id="Path_378" data-name="Path 378" class="cls-3" d="M245.4,29.8v.679h1.335v3.764h.831V30.479H248.9V29.8Z" transform="translate(-245.4 -29.8)"/>
            </g>
          </g>
          <g id="Group_193" data-name="Group 193" transform="translate(23.632 2.374)">
            <g id="Group_192" data-name="Group 192">
              <path id="Path_379" data-name="Path 379" class="cls-3" d="M298.5,30.463V29.8h-2.8v4.444h2.8V33.58h-1.966V32.325h1.55v-.631h-1.55V30.463Z" transform="translate(-295.7 -29.8)"/>
            </g>
          </g>
        </g>
      </g>
    </g>
  </g>
</svg>
