<svg xmlns="http://www.w3.org/2000/svg" xmlns:xlink="http://www.w3.org/1999/xlink" viewBox="342.013 -199.729 346.169 140.057">
  <defs>
    <style>
      .cls-1, .cls-5 {
        fill: none;
      }

      .cls-2 {
        clip-path: url(#clip-path);
      }

      .cls-3, .cls-4 {
        fill: #fff;
      }

      .cls-4 {
        opacity: 0.8;
      }

      .cls-5 {
        stroke: #fff;
        stroke-width: 2px;
      }
    </style>
    <clipPath id="clip-path">
      <rect class="cls-1" width="346.169" height="140.057"/>
    </clipPath>
  </defs>
  <g id="Group_748" data-name="Group 748" transform="translate(342.013 -199.729)">
    <g id="Sala-Francis--Microcopy" class="cls-2" transform="translate(0 0)">
      <g id="Sala-Francis--Microcopy-2" data-name="Sala-Francis--Microcopy" transform="translate(0)">
        <g id="Group_121" data-name="Group 121" transform="translate(0 66.651)">
          <g id="Group_120" data-name="Group 120" transform="translate(0 0)">
            <g id="Group_118" data-name="Group 118" transform="translate(0 21.807)">
              <path id="Path_328" data-name="Path 328" class="cls-3" d="M24.134,17.827c-.754-3.394-1.508-5.656-3.017-6.788C19.986,9.908,18.1,9.531,15.461,9.531H10.181V22.352h1.131c2.263,0,3.771-.377,4.525-1.508a6.371,6.371,0,0,0,1.131-3.771H18.1V29.517H16.969a7.6,7.6,0,0,0-1.131-4.148c-.754-1.131-2.263-1.885-4.525-1.885H10.181V37.436h4.525v1.131H0V37.436H4.525V9.531H0V8.4H24.888l.377,9.05H24.134Z" transform="translate(0 -7.269)"/>
              <path id="Path_329" data-name="Path 329" class="cls-3" d="M32.465,39.321a11.01,11.01,0,0,1-3.394-.754,5.439,5.439,0,0,1-3.394-4.525V32.157c0-1.508-.377-2.64-.377-3.771a5.015,5.015,0,0,0-1.131-3.017,5.6,5.6,0,0,0-4.9-2.263H17.381V37.436h4.525v1.131H7.2V37.436h4.525V9.531H7.2V8.4H23.038c3.394,0,5.656.377,7.542,1.508a6.081,6.081,0,0,1,2.64,5.279,6.08,6.08,0,0,1-2.263,4.9,15.844,15.844,0,0,1-7.165,2.64c3.771.754,6.033,2.263,7.165,4.148l1.131,3.394a11.625,11.625,0,0,1,.377,3.771V36.3c0,.754.377,1.131,1.131,1.508.377,0,.754.377,1.508.377H36.99v1.131A17.891,17.891,0,0,0,32.465,39.321ZM25.677,11.04c-.754-1.131-2.263-1.508-4.148-1.508H17.381V21.975h3.771c1.885,0,3.394-.377,4.148-1.508a8.086,8.086,0,0,0,1.508-4.525A8.557,8.557,0,0,0,25.677,11.04Z" transform="translate(19.951 -7.269)"/>
              <path id="Path_330" data-name="Path 330" class="cls-3" d="M30.861,39.121V37.99h4.525l-2.64-7.919h-9.8L20.3,37.99h4.525v1.131H15.4V37.99h3.771L30.107,8.2h1.508L41.8,37.99H45.19v1.131ZM27.844,16.5,23.319,28.94h8.673Z" transform="translate(42.672 -7.823)"/>
              <path id="Path_331" data-name="Path 331" class="cls-3" d="M49.9,9.531v29.79H48.388L29.156,10.663V37.813h4.525v1.131H23.5V37.813h4.525V9.531H23.5V8.4H35.19L48.765,28.009V9.531H44.24V8.4H54.421V9.531Z" transform="translate(65.116 -7.269)"/>
              <path id="Path_332" data-name="Path 332" class="cls-3" d="M54.88,39.221l-1.885-2.263A15.284,15.284,0,0,1,49.6,38.844a16.037,16.037,0,0,1-4.148.754c-3.771,0-6.788-1.508-9.8-4.525A14.757,14.757,0,0,1,31.5,24.138a17.412,17.412,0,0,1,4.148-11.313A14.068,14.068,0,0,1,45.829,8.3a13.556,13.556,0,0,1,4.148.754,22.392,22.392,0,0,1,3.017,1.508L54.88,8.677h1.131V17.35H54.88c-1.508-3.394-2.64-5.279-4.148-6.411a8.658,8.658,0,0,0-5.279-1.508c-2.64,0-4.525.754-5.656,2.64a15.325,15.325,0,0,0-1.885,7.919v8.3A15.325,15.325,0,0,0,39.8,36.2c1.131,1.885,3.394,2.64,6.033,2.64a7.942,7.942,0,0,0,4.9-1.885c1.508-1.131,2.64-3.394,3.771-6.788h1.508v9.05Z" transform="translate(87.283 -7.546)"/>
              <path id="Path_333" data-name="Path 333" class="cls-3" d="M38.4,38.567V37.436h4.525V9.531H38.4V8.4H53.107V9.531H48.581v27.9h4.525v1.131Z" transform="translate(106.403 -7.269)"/>
              <path id="Path_334" data-name="Path 334" class="cls-3" d="M59.315,37.513a9.087,9.087,0,0,1-6.788,2.64,7.53,7.53,0,0,1-3.394-.754,8.211,8.211,0,0,1-3.017-1.885L43.854,39.4H43.1v-9.05h1.131A13.12,13.12,0,0,0,46.871,36a7.674,7.674,0,0,0,5.656,2.263,7.942,7.942,0,0,0,4.9-1.885c1.508-1.131,1.885-2.64,1.885-4.525a4.332,4.332,0,0,0-2.263-4.148,18.376,18.376,0,0,0-6.033-2.263c-3.017-.754-4.9-1.885-6.033-3.394A9.262,9.262,0,0,1,43.1,16.4a7.786,7.786,0,0,1,8.3-8.3,10.44,10.44,0,0,1,3.394.377,7.58,7.58,0,0,1,3.017,1.508L59.692,8.1h.754v8.673H58.938c0-1.508-1.131-3.394-2.263-4.9A6.847,6.847,0,0,0,51.4,9.608a5.671,5.671,0,0,0-4.148,1.508,4.841,4.841,0,0,0-1.508,3.771c0,1.885.754,3.017,1.885,3.394,1.131.754,3.017,1.131,5.279,1.885a15.754,15.754,0,0,1,7.165,3.394c1.508,1.508,1.885,3.771,1.885,6.411A12.146,12.146,0,0,1,59.315,37.513Z" transform="translate(119.426 -8.1)"/>
              <path id="Path_335" data-name="Path 335" class="cls-3" d="M77.465,34.419c-2.64,3.017-6.788,4.525-12.067,4.525H52.2V37.813h4.525V9.531H52.2V8.4H65.775c4.9,0,8.673,1.508,11.313,4.148a15.734,15.734,0,0,1,4.148,10.936A14.452,14.452,0,0,1,77.465,34.419ZM73.317,12.171c-1.508-1.885-4.148-2.64-8.673-2.64H62.759v27.9h3.017q5.656,0,7.919-3.394C75.2,31.78,75.58,28.009,75.58,22.729,75.2,17.45,74.448,14.056,73.317,12.171Z" transform="translate(144.641 -7.269)"/>
              <path id="Path_336" data-name="Path 336" class="cls-3" d="M85.342,39.321a11.011,11.011,0,0,1-3.394-.754,5.439,5.439,0,0,1-3.394-4.525V32.157c0-1.508-.377-2.64-.377-3.771a5.015,5.015,0,0,0-1.131-3.017,5.6,5.6,0,0,0-4.9-2.263H69.881V37.436h4.525v1.131H59.7V37.436h4.525V9.531H59.7V8.4H75.538c3.394,0,5.656.377,7.542,1.508a6.081,6.081,0,0,1,2.64,5.279,6.08,6.08,0,0,1-2.263,4.9,15.844,15.844,0,0,1-7.165,2.64c3.771.754,6.033,2.263,7.165,4.148l1.131,3.394a11.625,11.625,0,0,1,.377,3.771V36.3c0,.754.377,1.131,1.131,1.508.377,0,.754.377,1.508.377H89.49v1.131A15,15,0,0,0,85.342,39.321ZM78.554,11.04c-.754-1.131-2.263-1.508-4.148-1.508H69.881V21.975h3.771c1.885,0,3.394-.377,4.148-1.508a8.086,8.086,0,0,0,1.508-4.525A14.773,14.773,0,0,0,78.554,11.04Z" transform="translate(165.423 -7.269)"/>
              <path id="Path_337" data-name="Path 337" class="cls-3" d="M83.361,39.121V37.99h4.525l-2.64-7.919h-9.8L72.8,37.99h4.525v1.131H67.9V37.99h3.771L82.607,8.2h1.508L94.3,37.99H97.69v1.131ZM80.721,16.5,76.2,28.94h8.673Z" transform="translate(188.144 -7.823)"/>
              <path id="Path_338" data-name="Path 338" class="cls-3" d="M76.1,38.567V37.436h4.525V9.531H76.1V8.4H90.807V9.531H86.281V37.813h4.525v1.131H76.1Zm17.723,0V37.436h4.525L87.036,23.107,99.48,9.531H94.2V8.4h11.313V9.531h-4.525l-9.8,10.181,14.329,17.723H107.4v1.131Z" transform="translate(210.866 -7.269)"/>
              <path id="Path_339" data-name="Path 339" class="cls-3" d="M110.542,38.567H84.9V37.436h4.525V9.531H84.9V8.4h24.888l.377,8.3h-1.131c-.754-3.017-1.508-4.9-3.017-5.656a10.176,10.176,0,0,0-5.656-1.508H95.081V22.352H96.59c2.263,0,3.771-.377,4.525-1.508a6.371,6.371,0,0,0,1.131-3.771h1.131V29.517h-1.131a7.6,7.6,0,0,0-1.131-4.148c-.754-1.131-2.263-1.885-4.525-1.885H95.459V37.436h6.033c3.017,0,4.9-.754,6.033-2.263a12.72,12.72,0,0,0,2.263-6.411h1.131Z" transform="translate(235.25 -7.269)"/>
            </g>
            <g id="Group_119" data-name="Group 119" transform="translate(87.533)">
              <path id="Path_318" data-name="Path 318" class="cls-4" d="M.3,7.685h0A7.834,7.834,0,0,1,8.335,0a7.622,7.622,0,0,1,8.035,7.685h0A7.834,7.834,0,0,1,8.335,15.37,7.426,7.426,0,0,1,.3,7.685Zm12.576,0h0c0-2.795-1.747-4.891-4.541-4.891A4.4,4.4,0,0,0,3.793,7.336h0a4.7,4.7,0,0,0,4.541,4.891C11.129,12.576,12.876,10.48,12.876,7.685Z" transform="translate(-0.3)"/>
              <path id="Path_319" data-name="Path 319" class="cls-4" d="M11.841,2.895H7.3V.1H19.876V3.244H15.335V15.121H11.841Z" transform="translate(17.153 0.249)"/>
              <path id="Path_320" data-name="Path 320" class="cls-4" d="M11.6.1H23.128V2.895H15.093V6.039H22.08V8.833H15.093v3.144h8.035v2.795H11.6Z" transform="translate(27.874 0.249)"/>
              <path id="Path_321" data-name="Path 321" class="cls-4" d="M15.4,13.025l2.1-2.445a7.357,7.357,0,0,0,4.541,1.747c1.4,0,2.1-.7,2.1-1.4h0c0-.7-.349-1.4-3.144-1.747-3.144-.7-4.891-1.747-4.891-4.541h0C16.1,1.847,18.195.1,21.339.1a9.665,9.665,0,0,1,5.589,1.747L25.181,4.292a6.5,6.5,0,0,0-3.843-1.4c-1.4,0-2.1.7-2.1,1.4h0c0,1.048.7,1.4,3.144,2.1,3.144.7,4.891,1.747,4.891,4.541h0c0,3.144-2.445,4.541-5.589,4.541A15.69,15.69,0,0,1,15.4,13.025Z" transform="translate(37.349 0.249)"/>
              <path id="Path_322" data-name="Path 322" class="cls-4" d="M19.5,7.685h0A7.834,7.834,0,0,1,27.535,0a7.834,7.834,0,0,1,8.035,7.685h0a7.834,7.834,0,0,1-8.035,7.685C22.644,15.72,19.5,12.227,19.5,7.685Zm12.576,0h0c0-2.795-1.747-4.891-4.541-4.891a4.4,4.4,0,0,0-4.541,4.541h0a4.7,4.7,0,0,0,4.541,4.891C29.98,12.576,32.076,10.48,32.076,7.685Z" transform="translate(47.571)"/>
              <path id="Path_323" data-name="Path 323" class="cls-4" d="M24.8,8.484V.1h3.144V8.484c0,2.445,1.4,3.843,3.144,3.843,2.1,0,3.144-1.4,3.144-3.493V.1h3.144V8.484c0,4.541-2.445,6.637-6.637,6.637C27.595,15.47,24.8,13.025,24.8,8.484Z" transform="translate(60.786 0.249)"/>
              <path id="Path_324" data-name="Path 324" class="cls-4" d="M29.6.1h6.987a8.737,8.737,0,0,1,4.541,1.4,5.337,5.337,0,0,1,1.4,3.493h0a4.628,4.628,0,0,1-3.144,4.541l3.843,5.24H39.381l-3.843-4.541H33.093v4.891H29.949V.1Zm6.637,7.336c1.747,0,2.445-.7,2.445-2.1h0c0-1.4-1.048-2.1-2.445-2.1H33.093V7.436Z" transform="translate(72.753 0.249)"/>
              <path id="Path_325" data-name="Path 325" class="cls-4" d="M33.8,7.685h0a8.042,8.042,0,0,1,16.069,0h0a7.834,7.834,0,0,1-8.035,7.685A7.426,7.426,0,0,1,33.8,7.685Zm12.576,0h0c0-2.795-1.747-4.891-4.541-4.891a4.4,4.4,0,0,0-4.541,4.541h0a4.7,4.7,0,0,0,4.541,4.891C44.629,12.576,46.376,10.48,46.376,7.685Z" transform="translate(83.225)"/>
              <path id="Path_326" data-name="Path 326" class="cls-4" d="M41.1.1h5.939c4.891,0,8.035,3.144,8.035,7.336h0a7.622,7.622,0,0,1-8.035,7.685H41.1Zm5.939,11.877A4.22,4.22,0,0,0,51.58,7.436h0a4.22,4.22,0,0,0-4.541-4.541H44.593v9.083Z" transform="translate(101.426 0.249)"/>
              <path id="Path_327" data-name="Path 327" class="cls-4" d="M45.9.1H57.428V2.895H49.393V6.039H56.38V8.833H49.393v3.144h8.035v2.795H45.9Z" transform="translate(113.394 0.249)"/>
            </g>
          </g>
        </g>
        <path id="Path_340" data-name="Path 340" class="cls-5" d="M1342.013,2115.5h40.395" transform="translate(-1189.177 -1975.443)"/>
        <g id="coin" transform="translate(149.46)">
          <path id="Path_342" data-name="Path 342" class="cls-3" d="M55.454,36.127A19.327,19.327,0,1,0,74.781,55.454,19.349,19.349,0,0,0,55.454,36.127Zm0,36.895A17.568,17.568,0,1,1,73.022,55.454,17.588,17.588,0,0,1,55.454,73.022Z" transform="translate(-31.89 -31.89)"/>
          <path id="Path_343" data-name="Path 343" class="cls-3" d="M23.564,0A23.564,23.564,0,1,0,47.127,23.563,23.59,23.59,0,0,0,23.564,0Zm0,45.368a21.8,21.8,0,1,1,21.8-21.8A21.829,21.829,0,0,1,23.564,45.368Z"/>
          <path id="Path_344" data-name="Path 344" class="cls-3" d="M68.66,152.437a.879.879,0,0,0-1.108.564h0a.88.88,0,1,0,1.109-.564Z" transform="translate(-59.591 -134.522)"/>
          <path id="Path_345" data-name="Path 345" class="cls-3" d="M68.038,234.258a.88.88,0,0,0,.27,1.717.867.867,0,0,0,.271-.043.879.879,0,1,0-.541-1.673Z" transform="translate(-59.521 -206.749)"/>
          <path id="Path_346" data-name="Path 346" class="cls-3" d="M86.58,271.3a.88.88,0,0,0,.517,1.591.88.88,0,0,0,.712-1.4A.881.881,0,0,0,86.58,271.3Z" transform="translate(-76.107 -239.338)"/>
          <path id="Path_347" data-name="Path 347" class="cls-3" d="M62.786,194.183a.88.88,0,1,0-.88.878A.878.878,0,0,0,62.786,194.183Z" transform="translate(-53.87 -170.634)"/>
          <path id="Path_348" data-name="Path 348" class="cls-3" d="M87.767,115.691a.879.879,0,1,0,.192,1.229A.879.879,0,0,0,87.767,115.691Z" transform="translate(-76.241 -101.975)"/>
          <path id="Path_349" data-name="Path 349" class="cls-3" d="M320.27,154.274a.88.88,0,1,0-.837-.609A.877.877,0,0,0,320.27,154.274Z" transform="translate(-281.935 -134.629)"/>
          <path id="Path_350" data-name="Path 350" class="cls-3" d="M116.865,300.631a.879.879,0,1,0-1.037,1.42.87.87,0,0,0,.517.17.88.88,0,0,0,.52-1.59Z" transform="translate(-101.926 -265.227)"/>
          <path id="Path_351" data-name="Path 351" class="cls-3" d="M116.558,88.013a.871.871,0,0,0,.516-.168.881.881,0,1,0-.516.168Z" transform="translate(-102.112 -76.139)"/>
          <path id="Path_352" data-name="Path 352" class="cls-3" d="M271.651,87.921a.88.88,0,1,0-.193-1.229A.877.877,0,0,0,271.651,87.921Z" transform="translate(-239.475 -76.206)"/>
          <path id="Path_353" data-name="Path 353" class="cls-3" d="M194.377,62.792a.88.88,0,1,0-.88-.881A.88.88,0,0,0,194.377,62.792Z" transform="translate(-170.806 -53.876)"/>
          <path id="Path_354" data-name="Path 354" class="cls-3" d="M153.461,69.214a.879.879,0,1,0-.837-.609A.878.878,0,0,0,153.461,69.214Z" transform="translate(-134.687 -59.545)"/>
          <path id="Path_355" data-name="Path 355" class="cls-3" d="M235.015,69.21a.879.879,0,1,0-.564-1.108A.881.881,0,0,0,235.015,69.21Z" transform="translate(-206.919 -59.579)"/>
          <path id="Path_356" data-name="Path 356" class="cls-3" d="M320.467,234.643a.88.88,0,1,0,.562,1.109A.879.879,0,0,0,320.467,234.643Z" transform="translate(-281.868 -207.088)"/>
          <path id="Path_357" data-name="Path 357" class="cls-3" d="M300.931,115.791a.88.88,0,1,0,1.229.195A.88.88,0,0,0,300.931,115.791Z" transform="translate(-265.321 -102.064)"/>
          <path id="Path_358" data-name="Path 358" class="cls-3" d="M326.717,193.434a.88.88,0,0,0-.88.88v.03a.88.88,0,0,0,.877.882h0a.88.88,0,0,0,.879-.878v-.034A.88.88,0,0,0,326.717,193.434Z" transform="translate(-287.626 -170.75)"/>
          <path id="Path_359" data-name="Path 359" class="cls-3" d="M153.48,319.378a.88.88,0,1,0,.563,1.109A.881.881,0,0,0,153.48,319.378Z" transform="translate(-134.464 -281.886)"/>
          <path id="Path_360" data-name="Path 360" class="cls-3" d="M301.816,271.625a.878.878,0,0,0-1.229.191h0a.879.879,0,1,0,1.228-.191Z" transform="translate(-265.188 -239.621)"/>
          <path id="Path_361" data-name="Path 361" class="cls-3" d="M271.443,300.862a.879.879,0,1,0,1.228.2A.879.879,0,0,0,271.443,300.862Z" transform="translate(-239.291 -265.432)"/>
          <path id="Path_362" data-name="Path 362" class="cls-3" d="M234.763,319.5a.879.879,0,1,0,1.107.566A.879.879,0,0,0,234.763,319.5Z" transform="translate(-206.695 -281.996)"/>
          <path id="Path_363" data-name="Path 363" class="cls-3" d="M194.108,325.833a.88.88,0,1,0,0,1.759h0a.88.88,0,0,0,0-1.759Z" transform="translate(-170.567 -287.623)"/>
          <path id="Path_364" data-name="Path 364" class="cls-3" d="M121.223,106.5h-.075a10.561,10.561,0,0,0-10.56,10.561v5.715a.88.88,0,0,0,.88.88,3.292,3.292,0,0,1,3.289,3.289v.605a.879.879,0,0,0,.88.879h11.094a.879.879,0,0,0,.88-.879v-.605a3.292,3.292,0,0,1,3.289-3.289.879.879,0,0,0,.88-.88v-5.715A10.561,10.561,0,0,0,121.223,106.5Zm8.8,15.473a5.058,5.058,0,0,0-4.161,4.7h-1.782v-1.763a.88.88,0,0,0-1.759,0v1.763h-2.268v-1.763a.88.88,0,0,0-1.759,0v1.763h-1.782a5.057,5.057,0,0,0-4.161-4.7v-4.912a8.8,8.8,0,0,1,8.808-8.8h.063a8.8,8.8,0,0,1,8.8,8.8v4.912Z" transform="translate(-97.618 -94.013)"/>
          <path id="Path_365" data-name="Path 365" class="cls-3" d="M151.8,193.766l-.891-.891.891-.891a.88.88,0,0,0-1.244-1.244l-.891.891-.891-.891a.88.88,0,1,0-1.244,1.244l.891.891-.891.891a.88.88,0,0,0,1.244,1.244l.891-.891.891.891a.879.879,0,1,0,1.244-1.244Z" transform="translate(-130.002 -168.145)"/>
          <path id="Path_366" data-name="Path 366" class="cls-3" d="M218.327,190.74a.88.88,0,0,0-1.244,0l-.891.891-.891-.891a.88.88,0,0,0-1.244,1.244l.891.891-.891.891a.88.88,0,0,0,1.244,1.244l.891-.891.891.891a.88.88,0,0,0,1.244-1.244l-.891-.891.891-.891A.88.88,0,0,0,218.327,190.74Z" transform="translate(-188.728 -168.144)"/>
          <path id="Path_367" data-name="Path 367" class="cls-3" d="M189.015,228.481v-.062a.88.88,0,0,0-1.759,0v.062a.879.879,0,0,0,.059,1.756h1.642a.879.879,0,0,0,.059-1.756Z" transform="translate(-164.572 -200.856)"/>
        </g>
      </g>
    </g>
  </g>
</svg>
