<svg xmlns="http://www.w3.org/2000/svg" viewBox="629.182 -521.367 341.271 133.622">
  <defs>
    <style>
      .cls-1 {
        fill: none;
        stroke: #fff;
        stroke-width: 2px;
      }

      .cls-2 {
        fill: #fff;
      }
    </style>
  </defs>
  <g id="Sala-Francis--Microcopy" transform="translate(629.182 -521.366)">
    <path id="Path_340" data-name="Path 340" class="cls-1" d="M1342.013,2115.5H1382.4" transform="translate(-1191.225 -1982.878)"/>
    <g id="Group_216" data-name="Group 216" transform="translate(0 78.135)">
      <path id="Path_341" data-name="Path 341" class="cls-2" d="M14.689,5.992c-.782-1.3-2.866-2.345-5.21-2.345-3.126,0-4.429,1.3-4.429,2.866,0,1.824,2.345,2.345,4.95,2.866,4.689.521,8.857,1.824,8.857,7.034,0,4.95-4.429,7.034-9.118,7.034-4.429,0-7.815-1.3-9.639-5.471l3.387-1.824c1.042,2.345,3.387,3.387,6.252,3.387,2.605,0,4.95-.782,4.95-3.387,0-2.084-2.084-2.866-4.95-3.126C5.05,12.5.882,11.2.882,6.252.882,1.824,5.31,0,9.218,0c3.387,0,7.034,1.042,8.6,4.429Z" transform="translate(-0.1 0)"/>
      <path id="Path_342" data-name="Path 342" class="cls-2" d="M29.317.3V12.8c0,6.513-3.908,9.9-9.378,9.9-5.21,0-9.639-3.126-9.639-9.9V.3h4.168V12.8c0,3.908,2.345,5.992,5.731,5.992s4.95-2.345,4.95-5.992V.3Z" transform="translate(16.272 0.482)"/>
      <path id="Path_343" data-name="Path 343" class="cls-2" d="M38.875,6.552A4.333,4.333,0,0,1,36.01,10.72,5.073,5.073,0,0,1,39.4,15.67c0,4.95-3.647,6.513-8.076,6.513H20.9V.3H31.321C35.489.3,38.875,2.124,38.875,6.552ZM24.808,9.157H31.06c2.605,0,3.387-1.042,3.387-2.345,0-1.042-.782-2.605-3.387-2.605H24.808Zm0,9.118H31.06c1.563,0,4.168-.521,4.168-2.605s-2.345-3.126-4.168-3.126H24.808Z" transform="translate(33.287 0.482)"/>
      <path id="Path_344" data-name="Path 344" class="cls-2" d="M49.917,6.292,42.884,15.67H42.1L35.068,6.031V21.923H30.9V.3h4.689l6.773,9.378L49.4.3h4.689V22.183H49.917Z" transform="translate(49.338 0.482)"/>
      <path id="Path_345" data-name="Path 345" class="cls-2" d="M60.015,18.015H48.552l-1.824,4.168H42.3L51.939.3h4.429l9.9,21.883H61.838ZM54.284,4.989l-4.168,9.378h8.076Z" transform="translate(67.636 0.482)"/>
      <path id="Path_346" data-name="Path 346" class="cls-2" d="M73.538,22.183h-4.95l-6.252-7.294H58.429v7.294H54V.3H64.42c5.21,0,7.815,3.387,7.815,7.294,0,3.126-1.3,5.992-5.471,6.773l6.513,7.555v.261ZM58.168,4.208v7.034H64.42a3.346,3.346,0,0,0,3.647-3.387c0-1.824-1.042-3.387-3.647-3.387H58.168Z" transform="translate(86.416 0.482)"/>
      <path id="Path_347" data-name="Path 347" class="cls-2" d="M63.9,22.183V.3h4.168V22.183Z" transform="translate(102.307 0.482)"/>
      <path id="Path_348" data-name="Path 348" class="cls-2" d="M82.968.3h4.168V22.183H84.531L73.068,7.334V22.183H68.9V.3h3.387L82.968,13.847Z" transform="translate(110.333 0.482)"/>
      <path id="Path_349" data-name="Path 349" class="cls-2" d="M101.3,11.563c0,5.731-3.647,11.2-11.2,11.2-7.815,0-11.2-5.471-11.2-11.2S82.547.1,90.1.1,101.3,5.831,101.3,11.563Zm-18.236.261c0,3.647,2.084,7.555,7.294,7.555S97.4,15.47,97.4,11.823s-2.084-7.815-7.034-7.815C84.892,4.008,82.808,8.176,83.068,11.823Z" transform="translate(126.384 0.161)"/>
      <path id="Path_350" data-name="Path 350" class="cls-2" d="M112.415.3l-9.639,10.421L113.2,21.662v.261h-5.21l-9.118-9.378v9.639H94.7V.3h4.168V9.678L107.2.3Z" transform="translate(151.745 0.482)"/>
      <path id="Path_351" data-name="Path 351" class="cls-2" d="M104.2,4.1h11.463V7.487H104.2Z" transform="translate(166.994 6.581)"/>
      <path id="Path_352" data-name="Path 352" class="cls-2" d="M111.761,6.713C111.761,2.024,116.189.2,120.1.2c4.429,0,9.118,1.824,9.118,7.034,0,5.471-4.168,6.513-8.857,6.513-1.824,0-4.689.521-4.689,2.866v1.824h13.547v3.908H111.5V16.612c0-4.95,4.689-6.513,8.857-6.513,1.563,0,4.689-.261,4.689-2.866,0-2.345-2.084-3.387-4.95-3.387-2.084,0-4.429,1.042-4.429,3.126h-3.908Z" transform="translate(178.711 0.321)"/>
      <path id="Path_353" data-name="Path 353" class="cls-2" d="M120.9,18.536h3.387V3.947H120.9V.3h7.555V18.8h3.126v3.387h-10.42V18.536Z" transform="translate(193.799 0.482)"/>
      <path id="Path_354" data-name="Path 354" class="cls-2" d="M127.26,18.536h3.387V3.947H127V.3h7.555V18.8h3.126v3.387H127.26Z" transform="translate(203.59 0.482)"/>
    </g>
    <path id="_001-transport" data-name="001-transport" class="cls-2" d="M88.218,145.622c-.018-.072-.054-.126-.072-.2a11.529,11.529,0,0,0-10.627-7.114H56.861V131.2a1.362,1.362,0,0,0-.432-.991,1.412,1.412,0,0,0-1.027-.36l-8.7.72V117.651a1.351,1.351,0,0,0-2.7,0V130.8l-4.07.342v-10.1a1.351,1.351,0,0,0-2.7,0v10.338l-2.143.18a1.354,1.354,0,0,0-1.243,1.351v5.421H31.591a9.5,9.5,0,0,0-3.332.612L17.939,142.9V139.66a1.359,1.359,0,0,0-.919-1.279l-5.079-1.693a1.352,1.352,0,0,0-1.225.18,1.333,1.333,0,0,0-.558,1.1v7.925l-2.522.973a1.347,1.347,0,0,0-.865,1.261v.342h-1.6v-5.421a1.351,1.351,0,1,0-2.7,0v5.421H1.351a1.351,1.351,0,1,0,0,2.7H2.468v5.421a1.351,1.351,0,0,0,2.7,0v-5.421h1.6v.342a1.347,1.347,0,0,0,.865,1.261l2.522.973v8.321a1.341,1.341,0,0,0,1.351,1.351,1.211,1.211,0,0,0,.432-.072l5.079-1.693a1.335,1.335,0,0,0,.919-1.279v-3.62l10.338,3.98a9.178,9.178,0,0,0,3.332.612h45.91a11.53,11.53,0,0,0,11.509-11.509A11.257,11.257,0,0,0,88.218,145.622ZM12.86,139.858l2.377.793v3.314l-2.377.919ZM15.237,159.4l-2.377.792v-5.4l2.377.919Zm62.282-.774H31.591a6.6,6.6,0,0,1-2.359-.432l-19.758-7.6v-1.531l19.758-7.6a6.6,6.6,0,0,1,2.359-.432H48.738a1.351,1.351,0,0,0,0-2.7H36.544v-4.179l17.615-1.477v6.988a1.361,1.361,0,0,0,1.351,1.351H77.519a8.816,8.816,0,0,1,7.132,3.638H33.519a1.351,1.351,0,1,0,0,2.7H85.985a8.515,8.515,0,0,1,.36,2.468A8.848,8.848,0,0,1,77.519,158.626Z" transform="translate(126.218 -116.3)"/>
  </g>
</svg>
